<?xml version="1.0" encoding="UTF-8"?>
<svg version="1.1" xmlns="http://www.w3.org/2000/svg" width="1600" height="498">
<path d="M0 0 C528 0 1056 0 1600 0 C1600 164.34 1600 328.68 1600 498 C1072 498 544 498 0 498 C0 333.66 0 169.32 0 0 Z " fill="#010101" transform="translate(0,0)"/>
<path d="M0 0 C0.66 0 1.32 0 2 0 C3.5476555 3.09531099 3.44409451 6.3666763 3.71875 9.78515625 C3.7665741 11.97070668 3.7665741 11.97070668 5 13 C5.04080783 14.99958364 5.04254356 17.00045254 5 19 C5.66 19 6.32 19 7 19 C7.66 24.28 8.32 29.56 9 35 C10.65 34.67 12.3 34.34 14 34 C14.05395478 35.62463842 14.09277195 37.24978541 14.125 38.875 C14.14820313 39.77992187 14.17140625 40.68484375 14.1953125 41.6171875 C14 44 14 44 12 46 C12 46.66 12 47.32 12 48 C14.31 48 16.62 48 19 48 C19 51.96 19 55.92 19 60 C20.11375 59.01 21.2275 58.02 22.375 57 C25.75 54 25.75 54 28 54 C27.57448104 55.91936213 27.13408062 57.83542874 26.6875 59.75 C26.44386719 60.81734375 26.20023437 61.8846875 25.94921875 62.984375 C25.01511395 65.95198366 23.95470755 67.63017983 22 70 C21.5359375 71.2065625 21.5359375 71.2065625 21.0625 72.4375 C19.82151745 75.43045791 18.09908907 77.55106275 16 80 C18.32277859 80.41890319 18.32277859 80.41890319 21 80 C23.27479957 77.81956524 23.27479957 77.81956524 25.1875 75 C26.41926835 73.30425772 27.68184972 71.62950145 29 70 C29.66 70 30.32 70 31 70 C30.494311 76.44753477 30.494311 76.44753477 27.875 79.375 C25.35041944 82.90941278 25.96417149 85.06037122 26.640625 89.20703125 C26.81851563 90.09455078 26.81851563 90.09455078 27 91 C27.45890625 90.6390625 27.9178125 90.278125 28.390625 89.90625 C29.31101562 89.21015625 29.31101562 89.21015625 30.25 88.5 C31.15492188 87.80390625 31.15492188 87.80390625 32.078125 87.09375 C34 86 34 86 38 86 C35.6392207 91.3654075 32.14052959 96.9865861 27 100 C26.34 100 25.68 100 25 100 C25 100.66 25 101.32 25 102 C26.32 102 27.64 102 29 102 C29 101.34 29 100.68 29 100 C32.21451269 98.39274365 35.43612536 98.94251815 39 99 C39.226875 98.195625 39.45375 97.39125 39.6875 96.5625 C40.120625 95.716875 40.55375 94.87125 41 94 C43.625 93.1875 43.625 93.1875 46 93 C44.43919686 98.08091235 42.75930118 102.44115457 40 107 C39.67 108.216875 39.34 109.43375 39 110.6875 C38 114 38 114 35 116 C34.5359375 117.2065625 34.5359375 117.2065625 34.0625 118.4375 C32.85174756 121.35755 31.63017137 122.3342248 29 124 C30.32 124.33 31.64 124.66 33 125 C31.84826645 127.46800047 30.95216435 129.04783565 29 131 C35.71086101 132.96138691 41.12802102 132.92781912 48 132 C50.91568022 131.74629796 53.83253336 131.51332121 56.75 131.28125 C59.0317797 131.1227852 59.0317797 131.1227852 61 130 C62.99960012 129.960008 65.00047242 129.95653201 67 130 C67 134 67 134 65.05859375 136.21875 C52.67123288 147 52.67123288 147 48 147 C48 147.99 48 148.98 48 150 C46.02 150 44.04 150 42 150 C41.67 150.99 41.34 151.98 41 153 C44.18162214 153.94642895 47.00391754 154.104112 50.31640625 154.0625 C51.32767578 154.05476562 52.33894531 154.04703125 53.38085938 154.0390625 C54.43080078 154.02617187 55.48074219 154.01328125 56.5625 154 C58.64708356 153.97450051 60.73172786 153.95346435 62.81640625 153.9375 C63.73881104 153.92589844 64.66121582 153.91429687 65.61157227 153.90234375 C68 154 68 154 71 155 C69.71107323 157.87529818 68.50703617 160.05008298 66 162 C63.3125 162.6875 63.3125 162.6875 61 163 C60.67 163.99 60.34 164.98 60 166 C58.68 166 57.36 166 56 166 C56 166.66 56 167.32 56 168 C54.2335343 169.0076952 52.46166177 170.00591714 50.6875 171 C49.70136719 171.556875 48.71523438 172.11375 47.69921875 172.6875 C45 174 45 174 42 174 C42 174.66 42 175.32 42 176 C40.37446717 177.70680947 38.70884005 179.37660195 37 181 C34 180 34 180 32.8125 177.9375 C32.4103125 176.9784375 32.4103125 176.9784375 32 176 C31.443125 176.226875 30.88625 176.45375 30.3125 176.6875 C27.07876916 177.12449065 25.60926022 175.81198627 23 174 C23.57441403 177.87729472 25.29254639 180.21519058 28 183 C29.32 183 30.64 183 32 183 C34.01953323 183.01137223 36.03906427 183.02313615 38.05859375 183.03515625 C40.51822843 183.04446801 42.97786389 183.05357442 45.4375 183.0625 C46.64599609 183.07087891 47.85449219 183.07925781 49.09960938 183.08789062 C63.50919171 183.19094849 63.50919171 183.19094849 77.6875 180.9375 C82.4632189 179.73913188 87.10401769 179.81601737 92 180 C92 180.99 92 181.98 92 183 C89.76462387 184.87511736 87.57851771 186.53616658 85.1875 188.1875 C84.54490234 188.65091797 83.90230469 189.11433594 83.24023438 189.59179688 C78.39646999 193 78.39646999 193 75 193 C74.67 193.99 74.34 194.98 74 196 C72.4221875 196.433125 72.4221875 196.433125 70.8125 196.875 C66.88470531 197.76007883 66.88470531 197.76007883 64 200.5 C60.07192566 203.77339528 56.50171876 204.45667696 51.58984375 205.5234375 C50.77644531 205.70132813 49.96304687 205.87921875 49.125 206.0625 C48.36445313 206.21847656 47.60390625 206.37445313 46.8203125 206.53515625 C44.99303657 206.83690841 44.99303657 206.83690841 44 208 C45.89274658 207.99214478 45.89274658 207.99214478 47.82373047 207.98413086 C52.49397068 207.96606542 57.16420779 207.95456231 61.83447266 207.94506836 C63.85791543 207.94003169 65.88135456 207.93320211 67.90478516 207.92456055 C70.80892843 207.91246588 73.71302369 207.90676512 76.6171875 207.90234375 C77.52556366 207.89718246 78.43393982 207.89202118 79.36984253 207.88670349 C80.21056305 207.88662796 81.05128357 207.88655243 81.91748047 207.88647461 C82.65916473 207.884254 83.400849 207.88203339 84.16500854 207.87974548 C86 208 86 208 88 209 C88 209.99 88 210.98 88 212 C85.31641472 213.78905685 83.75902361 214.4293572 80.75 215.25 C75.89035433 216.79841651 72.47173043 219.29062135 69 223 C68.67 223.66 68.34 224.32 68 225 C67.34 225 66.68 225 66 225 C66 225.66 66 226.32 66 227 C63.36 227 60.72 227 58 227 C58 228.65 58 230.3 58 232 C54.97580475 231.41196203 51.98241547 230.77321882 49 230 C48.67 230.99 48.34 231.98 48 233 C48.99 233.66 49.98 234.32 51 235 C51 235.66 51 236.32 51 237 C52.65 237 54.3 237 56 237 C56 237.66 56 238.32 56 239 C62.0124886 238.59346163 67.28902413 237.98135898 73 236 C76.02487256 235.42817478 79.05597359 234.93851634 82.09765625 234.46484375 C83.94002185 234.1697677 85.77673387 233.83439008 87.6015625 233.4453125 C89.906426 233.01737367 91.97383957 232.89786169 94.3125 232.9375 C95.529375 232.958125 96.74625 232.97875 98 233 C98 234.32 98 235.64 98 237 C92.88636364 242 92.88636364 242 89 242 C88.938125 242.78375 88.87625 243.5675 88.8125 244.375 C88.544375 245.24125 88.27625 246.1075 88 247 C85.4375 248.3125 85.4375 248.3125 83 249 C82.9690625 250.6396875 82.9690625 250.6396875 82.9375 252.3125 C82.4734375 254.1378125 82.4734375 254.1378125 82 256 C78.6875 257.75 78.6875 257.75 75 259 C73.88625 259.8353125 73.88625 259.8353125 72.75 260.6875 C71 262 71 262 68 262 C68 263.32 68 264.64 68 266 C64.04 265.67 60.08 265.34 56 265 C55.67 265.66 55.34 266.32 55 267 C54.34 267.33 53.68 267.66 53 268 C56.7935871 271.21880117 60.65829477 273.6163187 65 276 C64.67 276.99 64.34 277.98 64 279 C60.7 279 57.4 279 54 279 C58.12329758 283.12329758 61.2659662 283.53472411 67 284 C74.98172754 283.9983014 83.02243084 283.54563076 90.9296875 282.4609375 C95.94410341 281.79558003 100.95053154 281.8922289 106 281.9375 C106.96550781 281.94201172 107.93101562 281.94652344 108.92578125 281.95117188 C111.28392089 281.96284583 113.64192602 281.97921979 116 282 C115.24267578 285.79492188 115.24267578 285.79492188 113.05859375 287.640625 C106.78502047 291.49265509 100.40022014 294.92718836 93.74780273 298.07128906 C90.31054035 299.72131265 87.21811368 301.48101304 84.140625 303.7421875 C81 306 81 306 79 306 C78.34 305.01 77.68 304.02 77 303 C74.94074861 302.27617533 74.94074861 302.27617533 73 302 C72.67 302.66 72.34 303.32 72 304 C70.35 302.68 68.7 301.36 67 300 C67.33 301.32 67.66 302.64 68 304 C67.195625 303.814375 66.39125 303.62875 65.5625 303.4375 C64.716875 303.293125 63.87125 303.14875 63 303 C62.67 303.33 62.34 303.66 62 304 C72.28628215 311.81757443 85.0002999 311.20984369 97.42285156 311.65917969 C98.65986816 311.70606934 98.65986816 311.70606934 99.921875 311.75390625 C101.02934082 311.78979858 101.02934082 311.78979858 102.15917969 311.82641602 C104 312 104 312 106 313 C106 315.97 106 318.94 106 322 C104.35 322.66 102.7 323.32 101 324 C101 325.65 101 327.3 101 329 C100.21625 329.12375 99.4325 329.2475 98.625 329.375 C95.85942178 329.79117993 95.85942178 329.79117993 94 332 C91.66842508 332.34541851 89.33491639 332.67794257 87 333 C86.278125 333.37125 85.55625 333.7425 84.8125 334.125 C83 335 83 335 80.75 334.625 C79.88375 334.315625 79.88375 334.315625 79 334 C79 333.34 79 332.68 79 332 C77.35 333.32 75.7 334.64 74 336 C68.25 331.25 68.25 331.25 66 329 C66.33 330.32 66.66 331.64 67 333 C65.02 332.67 63.04 332.34 61 332 C75.30102693 347.16775584 93.17061545 350.13488334 113 351 C111.125 356.75 111.125 356.75 110 359 C111.65 359 113.3 359 115 359 C113.6875 360.5 113.6875 360.5 112 362 C111.01 362 110.02 362 109 362 C109 362.66 109 363.32 109 364 C112.3 364 115.6 364 119 364 C118 368 118 368 116.5 369.8125 C114.47256586 372.76917479 114.33853021 375.47928577 114 379 C112.24859857 378.54705135 110.49892656 378.08741252 108.75 377.625 C107.28820312 377.24214844 107.28820312 377.24214844 105.796875 376.8515625 C103.34162697 376.10401491 101.24382595 375.22876183 99 374 C99 374.66 99 375.32 99 376 C95.94039311 374.95099192 94.03055902 374.02814646 91.625 371.8125 C88.05107863 369.34479239 86.19576488 370.34893304 82 371 C79.65175298 370.0355414 77.31808364 369.03485877 75 368 C72.66700175 367.96045766 70.33291811 367.95598268 68 368 C65.5625 367 65.5625 367 64 366 C64 366.66 64 367.32 64 368 C64.7425 368.12375 65.485 368.2475 66.25 368.375 C68.80141485 368.95486701 70.7267573 369.73708739 73 371 C73 371.99 73 372.98 73 374 C71.02 374.33 69.04 374.66 67 375 C67.66 375.33 68.32 375.66 69 376 C68.67 377.65 68.34 379.3 68 381 C65.3314091 380.57241896 62.66556814 380.13323976 60 379.6875 C59.25621094 379.56955078 58.51242187 379.45160156 57.74609375 379.33007812 C51.08275273 378.20020726 44.8757686 376.92475878 40 372 C36.4201575 370.89317214 36.4201575 370.89317214 33 372 C32.66226562 371.28972656 32.32453125 370.57945312 31.9765625 369.84765625 C31.53054688 368.92855469 31.08453125 368.00945312 30.625 367.0625 C30.18414062 366.14597656 29.74328125 365.22945313 29.2890625 364.28515625 C28.20800838 361.87096198 28.20800838 361.87096198 26 361 C26 361.66 26 362.32 26 363 C21.96118589 361.40895202 17.99469722 359.71201309 14 358 C14 367.24 14 376.48 14 386 C15.876875 386.061875 17.75375 386.12375 19.6875 386.1875 C27.00069105 386.69617962 33.80234553 388.26754594 40.89624023 390.05908203 C46.82260045 391.53629143 52.70634704 392.68791638 58.75 393.5625 C65.60949566 394.55686707 72.27306224 395.92470473 79 397.58789062 C84.24830824 398.87026028 89.48780909 399.7450497 94.83984375 400.49609375 C100.29196263 401.36546747 105.64084646 402.68433219 111 404 C106.36329391 407.62085508 101.43439625 409.56133293 95.890625 411.35546875 C90.84636262 413.02437872 85.89424312 414.90161684 80.9375 416.8125 C79.07433601 417.52634779 77.2110537 418.23988685 75.34765625 418.953125 C73.98278076 419.47616211 73.98278076 419.47616211 72.59033203 420.00976562 C62.44855156 423.88677426 52.26288415 427.64561959 42.07250977 431.39257812 C34.36865262 434.22725964 26.68284548 437.10895399 19 440 C16.22944001 441.04239539 13.45861147 442.08407155 10.6875 443.125 C9.6821521 443.50301758 9.6821521 443.50301758 8.65649414 443.88867188 C4.86503767 445.31123047 1.0634489 446.70016316 -2.75 448.0625 C-7.53751169 449.78772944 -12.21181342 451.73598172 -16.8828125 453.75390625 C-19.3268938 454.73092622 -21.74057431 455.59539864 -24.23828125 456.4140625 C-29.24301837 458.05496848 -34.14907103 459.91813278 -39.0625 461.8125 C-40.90741396 462.5198916 -42.75246764 463.22691888 -44.59765625 463.93359375 C-45.95914795 464.45542236 -45.95914795 464.45542236 -47.34814453 464.98779297 C-51.86949536 466.71358201 -56.40274933 468.40737115 -60.93774414 470.09692383 C-63.56383451 471.07724128 -66.16953633 472.07200478 -68.75 473.16796875 C-75.3528612 475.6096518 -82.68544782 471.30210849 -88.76171875 468.87890625 C-93.4661803 467.03160459 -98.2044622 465.27246951 -102.9375 463.5 C-103.9886499 463.10578857 -105.0397998 462.71157715 -106.12280273 462.30541992 C-112.63480573 459.86869997 -119.16262208 457.49111283 -125.71875 455.17578125 C-130.17877321 453.57760627 -134.60856019 451.90251108 -139.04101562 450.22973633 C-143.34572972 448.60922983 -147.66457882 447.03710387 -152 445.5 C-161.14690614 442.25098583 -170.25549309 438.89155145 -179.27734375 435.30859375 C-188.29657501 431.73307688 -197.36523842 428.50021813 -206.58886719 425.48901367 C-212.24656665 423.62748537 -217.73341222 421.5491937 -223.19921875 419.17578125 C-227.48726728 417.37563814 -231.87365495 415.87185566 -236.2578125 414.32421875 C-240.38839912 412.86256023 -244.51149845 411.38400359 -248.625 409.875 C-249.30014648 409.63338135 -249.97529297 409.3917627 -250.67089844 409.14282227 C-254.20696117 407.83669692 -257.12990338 406.4621641 -260 404 C-251.54016191 401.76286695 -243.20995642 399.76548901 -234.53125 398.5625 C-230.20892849 397.87398861 -225.96084124 396.9402202 -221.6875 396 C-215.85556156 394.72440731 -210.1237066 393.70112878 -204.1875 393.0625 C-196.53560197 392.21916645 -189.1751514 390.54696029 -181.71166992 388.67602539 C-176.31148448 387.36127034 -171.55936686 386.75320568 -166 387 C-165.67 382.71 -165.34 378.42 -165 374 C-158.25 374.875 -158.25 374.875 -156 376 C-156 376.66 -156 377.32 -156 378 C-155.38125 378.0825 -154.7625 378.165 -154.125 378.25 C-152 379 -152 379 -150.75 381.0625 C-150.5025 381.701875 -150.255 382.34125 -150 383 C-148.4221875 382.566875 -148.4221875 382.566875 -146.8125 382.125 C-143.26655441 381.23387231 -139.7441419 380.63874384 -136.125 380.125 C-130.59978174 379.3274132 -125.23846286 378.15784783 -119.8125 376.875 C-113.3944336 375.37206915 -107.62846365 374.57235718 -101 375 C-100.67 376.32 -100.34 377.64 -100 379 C-122.87738424 385.18166229 -122.87738424 385.18166229 -132.1875 386.5078125 C-136.34794355 387.23589012 -140.37854969 388.40823404 -144.44213867 389.54174805 C-148.22080032 390.57790268 -151.93676726 391.37463425 -155.8125 391.9375 C-161.01813407 392.71729134 -165.95308986 394.04325685 -171 395.5 C-176.98883362 397.2286205 -182.83425116 398.57551365 -189.01171875 399.47265625 C-192.57176138 400.10089907 -196.02189157 401.02962003 -199.5 402 C-205.95677455 403.78577459 -212.37023178 405.06170878 -219 406 C-216.92014486 408.07985514 -215.94382318 408.50381716 -213.21875 409.3671875 C-212.46400391 409.61106201 -211.70925781 409.85493652 -210.93164062 410.10620117 C-210.12919922 410.35990479 -209.32675781 410.6136084 -208.5 410.875 C-202.64667269 412.76902878 -196.91225385 414.76621698 -191.23046875 417.1328125 C-187.98084249 418.39623987 -184.64920725 419.32176774 -181.30078125 420.28515625 C-178.09607642 421.28084553 -175.08298407 422.67872111 -172 424 C-170.40118905 424.49674432 -168.79643248 424.97458785 -167.1875 425.4375 C-162.82687713 426.6975287 -158.70370614 428.296586 -154.51171875 430.02734375 C-151.15959746 431.3254436 -147.74106488 432.29514231 -144.2890625 433.2890625 C-141.77923557 434.06856506 -139.42850065 435.10291105 -137.03515625 436.18359375 C-132.15506515 438.14125026 -127.03057443 439.48342977 -122 441 C-115.72349706 442.92960057 -109.67310048 445.32442248 -103.59619141 447.80151367 C-99.16040069 449.58981417 -94.725672 451.06986688 -90.12109375 452.34765625 C-88 453 -88 453 -84.5625 454.625 C-75.27813032 458.20844093 -67.60058948 456.87392096 -58.5 453.5 C-57.46407715 453.13487305 -56.4281543 452.76974609 -55.36083984 452.39355469 C-52.23216909 451.28423321 -49.11569181 450.14519474 -46 449 C-44.19042345 448.34807141 -42.38054594 447.69697735 -40.5703125 447.046875 C-33.36837936 444.4414165 -26.21878648 441.72963447 -19.12890625 438.83203125 C-16.15125784 437.66828976 -13.11909255 436.69837346 -10.078125 435.71484375 C-8.20463237 435.07039046 -6.37838048 434.29238421 -4.5625 433.5 C-1.7467512 432.31442156 0.89155273 431.40420599 3.8125 430.5625 C7.3047405 429.55339571 10.6401009 428.38721109 14 427 C18.16963646 425.27847035 22.364078 423.96294092 26.6953125 422.71484375 C29.90479031 421.71936165 32.92212069 420.34307461 36 419 C37.35310411 418.52846115 38.71171663 418.0725588 40.07421875 417.62890625 C45.15339066 415.95599824 50.20297539 414.20471871 55.25 412.4375 C56.55710937 411.98213867 56.55710937 411.98213867 57.890625 411.51757812 C61.96317261 410.09280728 66.01380332 408.65542465 70 407 C64.32976528 404.56989941 58.76263068 403.26850478 52.70288086 402.12573242 C48.91172061 401.40353962 45.20905439 400.56448198 41.5 399.5 C35.92229859 397.90517819 30.27364339 396.81854774 24.578125 395.74609375 C21.0119078 395.00248296 17.5027543 394.00078694 14 393 C14 397.95 14 402.9 14 408 C15.32 408.66 16.64 409.32 18 410 C20.25 411.9375 20.25 411.9375 22 414 C22 414.99 22 415.98 22 417 C11.11 417 0.22 417 -11 417 C-10 412 -10 412 -6.9609375 409.76953125 C-4.90668911 408.20091062 -4.10962572 407.46432921 -3.50878906 404.91943359 C-3.41043266 402.48435214 -3.47526309 400.11976488 -3.625 397.6875 C-3.65207031 396.85154297 -3.67914063 396.01558594 -3.70703125 395.15429688 C-3.77740437 393.10174753 -3.88501678 391.05053409 -4 389 C-14.43974387 386.12907043 -24.80689682 383.49631362 -35.484375 381.67578125 C-39.08677176 380.98332054 -42.49067664 380.05729614 -46 379 C-46 377.35 -46 375.7 -46 374 C-37.41781268 374.44753146 -29.43868181 375.8662221 -21.125 378 C-18.96138875 378.54346633 -16.79733922 379.08519138 -14.6328125 379.625 C-13.69324707 379.86476563 -12.75368164 380.10453125 -11.78564453 380.3515625 C-8.88358126 381.02709975 -5.93910992 381.51014835 -3 382 C-3 370.45 -3 358.9 -3 347 C-3.66 346.67 -4.32 346.34 -5 346 C-4.67 345.34 -4.34 344.68 -4 344 C-3.9310528 342.62657169 -3.91532292 341.24997898 -3.9375 339.875 C-3.9684375 337.956875 -3.9684375 337.956875 -4 336 C-5.32 337.32 -6.64 338.64 -8 340 C-7.01 340.33 -6.02 340.66 -5 341 C-5.45664022 346.3883546 -6.15453635 349.37612157 -9 354 C-9.71923208 357.69523952 -9.71923208 357.69523952 -10 361 C-10.66 360.67 -11.32 360.34 -12 360 C-12 358.68 -12 357.36 -12 356 C-17.15168392 358.39548073 -17.15168392 358.39548073 -20.4375 362.75 C-20.623125 363.4925 -20.80875 364.235 -21 365 C-21.66 365 -22.32 365 -23 365 C-23 363.68 -23 362.36 -23 361 C-23.99 361 -24.98 361 -26 361 C-26.66 362.32 -27.32 363.64 -28 365 C-29.98 365 -31.96 365 -34 365 C-34.28875 365.969375 -34.5775 366.93875 -34.875 367.9375 C-36 371 -36 371 -38 372 C-38.33 369.69 -38.66 367.38 -39 365 C-41.31 365 -43.62 365 -46 365 C-46 364.01 -46 363.02 -46 362 C-51.46121985 365.35839501 -56.70773373 368.67275608 -61.5625 372.875 C-66.21130999 376.61407877 -70.19354919 376.88872655 -76 377 C-77.67278999 377.3011022 -79.34478822 377.61378392 -81 378 C-81.33 377.01 -81.66 376.02 -82 375 C-82.99 375.66 -83.98 376.32 -85 377 C-88.833646 376.62941422 -92.02800037 375.23421331 -95.5 373.625 C-96.87671875 372.99464844 -96.87671875 372.99464844 -98.28125 372.3515625 C-100.96201888 371.01888142 -103.52035858 369.68004691 -106 368 C-106 367.34 -106 366.68 -106 366 C-106.66 366 -107.32 366 -108 366 C-108 365.34 -108 364.68 -108 364 C-99.44947508 362.27470373 -91.09381995 360.70633939 -82.35546875 360.30859375 C-79.73360258 360.14156295 -79.73360258 360.14156295 -77 358 C-78.65 358 -80.3 358 -82 358 C-82.33 357.01 -82.66 356.02 -83 355 C-85.3994884 354.15226176 -85.3994884 354.15226176 -88.25 353.625 C-93.34379043 352.37308011 -95.87231295 351.20619983 -99 347 C-99 346.34 -99 345.68 -99 345 C-88.99112106 344.37722531 -79.03411669 343.82292735 -69 344 C-69 343.01 -69 342.02 -69 341 C-70.54107422 340.87044922 -70.54107422 340.87044922 -72.11328125 340.73828125 C-80.92159899 339.88428333 -88.14007688 338.36292342 -96 334 C-96 333.01 -96 332.02 -96 331 C-97.051875 331.0825 -98.10375 331.165 -99.1875 331.25 C-103.61054645 330.95996417 -104.95578635 330.13119118 -108 327 C-109.70805274 324.31591712 -110 323.23830467 -110 320 C-106.21186165 317.47457443 -102.96396671 317.58901984 -98.5625 317.4375 C-97.04282472 317.37722596 -95.52328041 317.31353333 -94.00390625 317.24609375 C-93.33174072 317.22216553 -92.6595752 317.1982373 -91.96704102 317.17358398 C-89.89220106 316.99048715 -88.01605194 316.51137038 -86 316 C-82.01773151 315.77458858 -79.18706318 315.93872068 -75.375 317.1875 C-72.02839623 318.36807387 -72.02839623 318.36807387 -69.25 316.6875 C-68.13625 315.8521875 -68.13625 315.8521875 -67 315 C-62.87848658 313.62616219 -58.7538638 313.615913 -54.44921875 313.39453125 C-51.41878033 313.22119256 -48.89654151 312.96551384 -46 312 C-46.33 311.34 -46.66 310.68 -47 310 C-47.61875 310.165 -48.2375 310.33 -48.875 310.5 C-51 311 -51 311 -53 311 C-53.33 310.34 -53.66 309.68 -54 309 C-58.64613708 308.68321793 -60.3806584 309.22517144 -64 312 C-67.53327509 311.66875546 -70.91566683 310.13362104 -73.375 307.5625 C-75.62292309 305.40103549 -78.20129628 304.34104553 -81 303 C-81.99 302.34 -82.98 301.68 -84 301 C-84 300.34 -84 299.68 -84 299 C-84.99 299.33 -85.98 299.66 -87 300 C-88.69248548 299.07079228 -90.3804635 298.12986068 -92.01953125 297.109375 C-94.09827273 295.94495176 -96.11137657 295.23151206 -98.375 294.5 C-99.57125 294.005 -100.7675 293.51 -102 293 C-102.7265625 290.90625 -102.7265625 290.90625 -103 289 C-102.33057373 289.01571045 -101.66114746 289.0314209 -100.97143555 289.04760742 C-97.8768797 289.1107725 -94.7824602 289.14924564 -91.6875 289.1875 C-90.63498047 289.21263672 -89.58246094 289.23777344 -88.49804688 289.26367188 C-82.08076848 289.32290829 -76.67377079 288.59866443 -70.54272461 286.71948242 C-66.20911574 285.49325627 -61.80336673 285.22664432 -57.32617188 284.91601562 C-55.076759 284.74089227 -55.076759 284.74089227 -52 284 C-50.49737402 282.18821222 -50.49737402 282.18821222 -50 280 C-49.62875 279.0925 -49.2575 278.185 -48.875 277.25 C-48.58625 276.5075 -48.2975 275.765 -48 275 C-48.70125 275.680625 -49.4025 276.36125 -50.125 277.0625 C-53 279 -53 279 -55.75 279.125 C-60.36909207 277.52608351 -64.06574236 274.85889388 -68 272 C-67.34 270.68 -66.68 269.36 -66 268 C-64.02 268.33 -62.04 268.66 -60 269 C-61.94857727 266.58835972 -61.94857727 266.58835972 -65.5625 266.9375 C-67.2640625 266.9684375 -67.2640625 266.9684375 -69 267 C-69.33 266.67 -69.66 266.34 -70 266 C-71.34747084 265.76924918 -72.70377565 265.58846937 -74.0625 265.4375 C-75.361875 265.293125 -76.66125 265.14875 -78 265 C-77.67 262.36 -77.34 259.72 -77 257 C-79.64 257 -82.28 257 -85 257 C-84.67 256.01 -84.34 255.02 -84 254 C-73.77 254 -63.54 254 -53 254 C-52.67 253.01 -52.34 252.02 -52 251 C-52.969375 251 -53.93875 251 -54.9375 251 C-56.29166667 251 -57.64583333 251 -59 251 C-59 251.66 -59 252.32 -59 253 C-60.79158489 253.02696365 -62.58328473 253.04637917 -64.375 253.0625 C-65.37273437 253.07410156 -66.37046875 253.08570313 -67.3984375 253.09765625 C-70 253 -70 253 -72 252 C-72.26296875 251.37351562 -72.5259375 250.74703125 -72.796875 250.1015625 C-74.44633961 247.22035484 -76.22268632 246.65705907 -79.25 245.375 C-80.23097656 244.95605469 -81.21195313 244.53710938 -82.22265625 244.10546875 C-85.11739376 242.95327365 -88.01273214 241.88810666 -91 241 C-91.020625 240.278125 -91.04125 239.55625 -91.0625 238.8125 C-92.30022667 235.09931998 -94.23602621 234.17035048 -97.50390625 232.2109375 C-97.99761719 231.81132812 -98.49132812 231.41171875 -99 231 C-99 230.01 -99 229.02 -99 228 C-93.98803051 227.85202144 -89.57818019 228.35814186 -84.6875 229.4375 C-79.41906282 230.56696498 -74.23403224 231.4106711 -68.85546875 231.7890625 C-67 232 -67 232 -65 233 C-63.17110611 233.31832014 -61.33667559 233.6051791 -59.5 233.875 C-55.49498747 234.51064041 -51.73008507 235.30806756 -47.875 236.5625 C-42.95654298 238.14343261 -38.14123613 238.68277479 -33 239 C-33.33 238.01 -33.66 237.02 -34 236 C-32.67189785 234.32916181 -31.33827304 232.66270287 -30 231 C-30 229.68 -30 228.36 -30 227 C-30.5775 227.680625 -31.155 228.36125 -31.75 229.0625 C-34 231 -34 231 -36 231 C-38.50715624 229.74642188 -40.02313466 227.97686534 -42 226 C-43.15242188 225.54753906 -43.15242188 225.54753906 -44.328125 225.0859375 C-47.21453799 223.91280473 -49.32604043 222.43035735 -51.8125 220.5625 C-59.34918463 215.23275084 -66.28901438 213.56350623 -75.36572266 212.17675781 C-79.29001315 211.53138378 -82.15479514 210.87453686 -85 208 C-85 207.34 -85 206.68 -85 206 C-78.71367319 203.52085303 -73.3241437 202.57776074 -66.58984375 202.70703125 C-65.73693253 202.71127609 -64.8840213 202.71552094 -64.00526428 202.71989441 C-61.3156705 202.7365137 -58.62686231 202.77413225 -55.9375 202.8125 C-54.0996203 202.82756857 -52.26172869 202.84125314 -50.42382812 202.85351562 C-45.94892204 202.88636195 -41.4745936 202.93802502 -37 203 C-37 202.01 -37 201.02 -37 200 C-42.61 200 -48.22 200 -54 200 C-54.33 198.35 -54.66 196.7 -55 195 C-55.66 195.66 -56.32 196.32 -57 197 C-58.9375 196.9375 -58.9375 196.9375 -61 196 C-62.03789581 194.35666496 -63.03567924 192.68756133 -64 191 C-66.43417813 188.73969173 -68.23538949 187.92296344 -71.4375 186.875 C-75.68877602 185.17992833 -76.86195492 182.11901057 -78.80078125 178.1640625 C-80.3570221 175.35573211 -82.33846895 173.74900612 -85 172 C-84.67 170.68 -84.34 169.36 -84 168 C-74.57470111 169.71605442 -65.1925087 171.5744701 -55.82495117 173.58227539 C-50.32205645 174.75082627 -44.81300784 175.75995477 -39.25 176.60546875 C-37 177 -37 177 -34 178 C-31.3071504 178.17812624 -28.70558632 178.08727698 -26 178 C-24.62231356 176.84431881 -24.62231356 176.84431881 -24.8125 173.6875 C-24.98201948 170.35361682 -25.24442871 168.74308013 -27 166 C-27.66 166 -28.32 166 -29 166 C-29.33 166.66 -29.66 167.32 -30 168 C-34.48978953 167.76369529 -37.30130016 166.31204295 -41 163.9375 C-44.83925284 161.50751973 -47.33783224 160.26386825 -52 161 C-50.125 157.125 -50.125 157.125 -49 156 C-49.721875 155.938125 -50.44375 155.87625 -51.1875 155.8125 C-54.88727425 154.74367633 -56.31685822 152.74554043 -59 150 C-60.98133407 148.6562439 -63.01371189 147.42921574 -65.0625 146.19140625 C-67.57842324 144.64431635 -69.84387029 143.0213716 -72 141 C-72 140.01 -72 139.02 -72 138 C-66.62755521 137.47328973 -63.10504295 138.20434494 -58.125 140.3125 C-51.1737855 143.18914563 -44.2883953 144.34327641 -36.87109375 145.421875 C-34.1496518 145.82830629 -31.64293805 146.30265487 -29 147 C-29.66 147 -30.32 147 -31 147 C-31.66 146.01 -32.32 145.02 -33 144 C-34.86173757 143.28754506 -34.86173757 143.28754506 -36.9375 142.8125 C-40.685854 141.5360335 -40.685854 141.5360335 -42.05078125 139.20703125 C-42.51974251 137.81062706 -42.96228121 136.4050898 -43.37890625 134.9921875 C-44.52111242 131.32850732 -46.45012626 128.81726535 -49.859375 127.01953125 C-50.54515625 126.70371094 -51.2309375 126.38789063 -51.9375 126.0625 C-56.23498632 124.07842688 -58.37124666 121.94313001 -61 118 C-61 116.68 -61 115.36 -61 114 C-54.47154795 114.75328293 -54.47154795 114.75328293 -52.1484375 115.96875 C-49.42097584 117.2779316 -46.86019885 117.66291762 -43.875 118.125 C-42.82054687 118.29257813 -41.76609375 118.46015625 -40.6796875 118.6328125 C-38.12054059 119.04525255 -38.12054059 119.04525255 -36 119 C-37.98 118.01 -39.96 117.02 -42 116 C-42 115.34 -42 114.68 -42 114 C-42.66 114 -43.32 114 -44 114 C-44.50838564 111.96040523 -45.00633886 109.91820862 -45.5 107.875 C-45.7784375 106.73804687 -46.056875 105.60109375 -46.34375 104.4296875 C-46.96453765 101.18533302 -47.12006768 98.29185543 -47 95 C-43.54315855 96.53637398 -40.92597783 98.61839014 -38 101 C-34.11788979 103.89150278 -30.17473147 106.5442756 -26 109 C-25.67 109.33 -25.34 109.66 -25 110 C-23.31391034 110.07205511 -21.62499341 110.08386068 -19.9375 110.0625 C-19.01839844 110.05347656 -18.09929687 110.04445313 -17.15234375 110.03515625 C-16.44207031 110.02355469 -15.73179687 110.01195313 -15 110 C-15.85464844 109.57589844 -16.70929688 109.15179688 -17.58984375 108.71484375 C-20.8942027 106.96048748 -23.99152016 105.22722468 -27 103 C-28 99.1875 -28 99.1875 -28 96 C-29.76529595 94.78309467 -29.76529595 94.78309467 -32 94 C-36.90250696 89.87743733 -36.90250696 89.87743733 -37.3125 86.1875 C-37.1578125 85.1046875 -37.1578125 85.1046875 -37 84 C-37.598125 83.814375 -38.19625 83.62875 -38.8125 83.4375 C-42.10610133 81.27313341 -42.75851019 78.66239494 -44 75 C-44.1875 72.0625 -44.1875 72.0625 -44 70 C-43.34 70 -42.68 70 -42 70 C-40.97616089 71.14920716 -40.00615653 72.34659048 -39.0625 73.5625 C-33.48895511 80.1154963 -26.65296318 84.99620545 -18 86 C-18.5053125 85.08476563 -19.010625 84.16953125 -19.53125 83.2265625 C-20.18771927 82.02616155 -20.8439573 80.82563413 -21.5 79.625 C-21.83386719 79.02171875 -22.16773438 78.4184375 -22.51171875 77.796875 C-25 73.2265625 -25 73.2265625 -25 71 C-20.545 70.505 -20.545 70.505 -16 70 C-16.66 68.68 -17.32 67.36 -18 66 C-16.35 66.66 -14.7 67.32 -13 68 C-12.97421875 66.94039063 -12.9484375 65.88078125 -12.921875 64.7890625 C-12.8656022 63.40099999 -12.80825467 62.01298075 -12.75 60.625 C-12.73582031 59.92632812 -12.72164062 59.22765625 -12.70703125 58.5078125 C-12.609375 56.4765625 -12.609375 56.4765625 -12 53 C-9.953125 51.5234375 -9.953125 51.5234375 -8 51 C-8.47550561 49.51965236 -8.95551216 48.04074979 -9.4375 46.5625 C-9.70433594 45.73878906 -9.97117187 44.91507813 -10.24609375 44.06640625 C-10.82155494 42.03780412 -10.82155494 42.03780412 -12 41 C-12.12557162 38.69006618 -12.17575729 36.37581464 -12.1875 34.0625 C-12.20167969 32.79535156 -12.21585938 31.52820313 -12.23046875 30.22265625 C-12 27 -12 27 -10 25 C-9.01 27.97 -8.02 30.94 -7 34 C-6.34 34 -5.68 34 -5 34 C-4.95512451 33.14768799 -4.91024902 32.29537598 -4.86401367 31.41723633 C-4.69021917 28.23893954 -4.50431102 25.06164349 -4.31030273 21.88452148 C-4.22898123 20.51240305 -4.1524176 19.13999367 -4.08081055 17.76733398 C-3.97672072 15.78819147 -3.85378779 13.81006871 -3.73046875 11.83203125 C-3.66239014 10.64327393 -3.59431152 9.4545166 -3.52416992 8.22973633 C-2.9671417 4.7975396 -2.09922806 2.7553788 0 0 Z " fill="#F9F9F9" transform="translate(268,10)"/>
<path d="M0 0 C85.14 0 170.28 0 258 0 C258 28.38 258 56.76 258 86 C250.08 86 242.16 86 234 86 C233.21625 83.525 232.4325 81.05 231.625 78.5 C231.26075928 77.3562793 231.26075928 77.3562793 230.88916016 76.18945312 C229.80917151 72.75528256 228.81072013 69.3279022 227.96484375 65.828125 C224.77635538 53.17744242 218.21192047 40.72992795 207.1796875 33.2421875 C199.58942221 28.91655244 192.67091351 25.98380586 183.921875 25.68359375 C182.76171875 25.64169922 181.6015625 25.59980469 180.40625 25.55664062 C179.1996875 25.51732422 177.993125 25.47800781 176.75 25.4375 C175.52796875 25.39431641 174.3059375 25.35113281 173.046875 25.30664062 C170.0313608 25.20062645 167.01576552 25.09856064 164 25 C164.0839169 51.31252696 164.17905664 77.62499267 164.28752708 103.93743038 C164.33763153 116.15497017 164.38407476 128.37250333 164.421875 140.59008789 C164.45483409 151.23993283 164.49468704 161.88972594 164.54279006 172.53951365 C164.56801601 178.17755915 164.58980887 183.81557045 164.60334396 189.45365715 C164.61619966 194.76334487 164.63829199 200.07291503 164.66738319 205.38253784 C164.67643154 207.32832631 164.68214278 209.27413369 164.68421364 211.21994209 C164.6875556 213.8837752 164.703085 216.5472789 164.7215271 219.21104431 C164.718625 220.35651471 164.718625 220.35651471 164.71566427 221.52512592 C164.80611083 230.30929781 166.40280332 238.06262946 172 245 C178.14248415 250.82748496 187.7853017 251.43549358 195.87890625 252.51953125 C199 253 199 253 200 254 C200 261.26 200 268.52 200 276 C153.14 276 106.28 276 58 276 C58 268.74 58 261.48 58 254 C60.84625 253.38125 60.84625 253.38125 63.75 252.75 C75.78393417 250.01338141 75.78393417 250.01338141 87 245 C88.18028284 242.84902067 88.18028284 242.84902067 89 240 C89.2475 239.28972656 89.495 238.57945312 89.75 237.84765625 C92.11558254 231.01248747 93.1490081 224.9939355 93.15821838 217.73002625 C93.16315636 216.90087654 93.16809434 216.07172684 93.17318195 215.21745139 C93.18852987 212.44143768 93.19691025 209.66544705 93.20532227 206.8894043 C93.21490291 204.89854225 93.22491311 202.90768223 93.23532104 200.91682434 C93.26235591 195.51234707 93.28337318 190.10786109 93.30332303 184.70335364 C93.3251913 179.05521541 93.35257589 173.40710401 93.37937927 167.75898743 C93.42929476 157.0635465 93.47423785 146.36809067 93.51740164 135.67262059 C93.56678377 123.49617686 93.62169829 111.31976006 93.67708123 99.14334238 C93.79088372 74.09558671 93.89772656 49.04780521 94 24 C90.63896515 24.13277356 87.27847548 24.27639007 83.91796875 24.421875 C82.97240112 24.45909668 82.0268335 24.49631836 81.0526123 24.53466797 C65.7896834 25.21198742 52.54685684 29.50864852 42 41 C32.77052889 52.9529216 28.50755465 66.80902335 24.98046875 81.23828125 C24 85 24 85 23 86 C15.41 86 7.82 86 0 86 C0 57.62 0 29.24 0 0 Z " fill="#FCFCFC" transform="translate(453,32)"/>
<path d="M0 0 C1.01191406 0.26683594 2.02382813 0.53367187 3.06640625 0.80859375 C22.8015195 6.59790337 38.08553285 19.87005352 49 37 C60.47865315 58.52247467 61 77.36533819 61 102 C19.42 102 -22.16 102 -65 102 C-59.86984643 132.44170249 -59.86984643 132.44170249 -43.828125 156.8984375 C-42 159 -42 159 -42 161 C-41.34 161 -40.68 161 -40 161 C-40 161.66 -40 162.32 -40 163 C-39.4328125 163.11601562 -38.865625 163.23203125 -38.28125 163.3515625 C-35.77302251 164.06451758 -33.78330629 165.11918154 -31.5 166.375 C-17.67365945 173.36926318 -3.39399638 173.56584728 11.1953125 169 C18.57813097 166.3963146 24.14602189 163.1510398 30 158 C30.92039062 157.27490234 30.92039062 157.27490234 31.859375 156.53515625 C36.72557777 152.6486536 40.33673196 148.01054899 44 143 C48.3573226 144.47130373 51.71934134 146.83080615 55.3125 149.625 C55.86228516 150.04523438 56.41207031 150.46546875 56.97851562 150.8984375 C58.32292168 151.92720039 59.66201413 152.9629009 61 154 C58.4764578 169.44257165 39.90242976 186.4225405 28 195 C26.93136719 195.77085937 25.86273437 196.54171875 24.76171875 197.3359375 C7.79429813 209.10954751 -9.93513943 212.41285835 -30.4375 212.25 C-32.34752808 212.23658569 -32.34752808 212.23658569 -34.29614258 212.22290039 C-61.96590709 211.88099217 -83.17355241 203.41825602 -103 184 C-103.6909375 183.34773437 -104.381875 182.69546875 -105.09375 182.0234375 C-115.07889775 172.43244032 -121.10092731 161.05163073 -125.75 148.125 C-126.04382568 147.32352539 -126.33765137 146.52205078 -126.64038086 145.69628906 C-130.93158102 133.29810936 -131.37910036 120.78600718 -131.3125 107.8125 C-131.31001251 107.03931427 -131.30752502 106.26612854 -131.30496216 105.46951294 C-131.1534988 75.04740995 -122.69561298 50.68116924 -103 27 C-75.88482904 0.63964108 -36.90610258 -10.7507058 0 0 Z " fill="#FCFCFC" transform="translate(837,101)"/>
<path d="M0 0 C37.62 0 75.24 0 114 0 C114 6.6 114 13.2 114 20 C111.710625 20.6496875 111.710625 20.6496875 109.375 21.3125 C105.34494391 22.52437502 101.64442995 23.8507208 98 26 C95.73880624 30.52238753 96.58510312 35.48553336 97.87109375 40.1796875 C100.53439576 47.88143298 103.86071767 55.1928356 107.37109375 62.53515625 C109.08119967 66.17271967 110.60132144 69.84215007 112.05859375 73.5859375 C115.32995106 81.97472927 118.94863859 90.22709121 122.5 98.5 C124.00089808 101.99961572 125.50084963 105.49963527 127 109 C127.29535645 109.68884277 127.59071289 110.37768555 127.89501953 111.08740234 C128.62148015 112.78574344 129.34229273 114.48649765 130.0625 116.1875 C130.44535156 117.08855469 130.82820313 117.98960937 131.22265625 118.91796875 C132 121 132 121 132 123 C132.66 123 133.32 123 134 123 C134.15855469 122.39414063 134.31710937 121.78828125 134.48046875 121.1640625 C136.02119507 115.63106744 138.02380567 110.77256939 140.6796875 105.69140625 C142.65932573 101.65598987 144.18246049 97.47046123 145.76171875 93.265625 C147.7119664 88.12238514 149.85848484 83.06594984 152 78 C158.14216322 63.55809372 158.14216322 63.55809372 164 49 C164.556875 47.65228516 164.556875 47.65228516 165.125 46.27734375 C167.39415461 40.54930415 169.24182687 35.19619867 168 29 C164.04461189 22.73730216 154.55388031 21.63847008 148 20 C148 13.4 148 6.8 148 0 C173.08 0 198.16 0 224 0 C224 6.27 224 12.54 224 19 C222.14375 19.7425 220.2875 20.485 218.375 21.25 C203.82288529 27.36462097 197.85985329 37.09713652 192.05761719 51.30810547 C191.38753185 52.99458633 190.71946757 54.68187134 190.05322266 56.36987305 C187.92934249 61.6736656 185.62453632 66.90166863 183.35546875 72.14453125 C181.1357885 77.29327411 179.00178066 82.46639384 176.93359375 87.67773438 C175.60483013 90.98296438 174.18523016 94.23938002 172.75 97.5 C172.45625488 98.16870117 172.16250977 98.83740234 171.85986328 99.52636719 C169.89098666 104.00155658 167.90108885 108.46726517 165.90893555 112.93212891 C162.94511009 119.57641672 160.04032595 126.23318849 157.26953125 132.9609375 C154.30570865 140.05587283 151.16965081 147.07879098 148.06787109 154.11425781 C143.93047243 163.43793304 143.93047243 163.43793304 140.0625 172.875 C137.8914619 178.41489033 135.42842647 183.82204774 132.99902344 189.25195312 C129.85114632 196.3001411 126.7699349 203.3800518 124.0078125 210.58984375 C115.62619195 231.91097339 103.85747339 256.67739492 82 267 C69.61113732 271.95229767 55.70516869 273.40007274 42.9375 269 C34.73707082 265.32430258 28.35804751 260.1541435 24.65625 251.859375 C22.02035725 244.3910122 21.55931535 235.51571693 24.625 228.125 C28.52924996 220.69740251 33.83503127 214.64433646 42 212 C50.80113906 210.72615093 57.65588185 211.30379617 65.046875 216.39453125 C68.4465178 219.18903763 70.41585432 221.42725131 72.1875 225.5 C72.53167969 226.2734375 72.87585937 227.046875 73.23046875 227.84375 C74 230 74 230 74 233 C86.43814365 227.6411626 91.85454487 215.90431568 97 204 C98.17549789 200.1220094 97.9938027 198.06982449 96.375 194.375 C96.00117187 193.50875 95.62734375 192.6425 95.2421875 191.75 C94.83226562 190.8425 94.42234375 189.935 94 189 C93.59007812 188.071875 93.18015625 187.14375 92.7578125 186.1875 C90.90941501 182.05443729 89.00434718 177.96582568 86.9375 173.9375 C85.41611302 170.95607229 84.15198865 167.93152768 82.9375 164.8125 C81.9186365 162.19992785 80.94536302 159.90893837 79.5 157.5 C77.65456296 154.42427159 76.43932721 151.23529712 75.16015625 147.890625 C71.53170025 138.85002755 67.2099288 130.12027413 62.97851562 121.3515625 C60.53755484 116.27490127 58.16652693 111.19966463 56 106 C55.00185959 103.62421787 54.00186591 101.24921349 53 98.875 C52.505 97.69679688 52.01 96.51859375 51.5 95.3046875 C50.16987679 92.3742598 48.66329984 89.74648421 47 87 C46.31733062 85.43219655 45.67092053 83.8480831 45.0625 82.25 C41.10824134 71.91072629 36.15298346 62.01746034 31.33398438 52.0625 C26.97156608 43.02019758 26.97156608 43.02019758 25.3203125 39.015625 C21.94656844 31.30991371 17.24348452 26.46863846 9.625 22.97265625 C6.47633594 21.80596377 3.22866751 20.92247643 0 20 C0 13.4 0 6.8 0 0 Z " fill="#FBFBFB" transform="translate(1375,102)"/>
<path d="M0 0 C1.58150242 0.39276057 3.1635723 0.78324068 4.74609375 1.171875 C29.31940311 7.31940311 29.31940311 7.31940311 32 10 C32.09365006 11.7492872 32.11744438 13.50236254 32.11352539 15.25415039 C32.11344986 16.37523697 32.11337433 17.49632355 32.11329651 18.65138245 C32.10813522 19.8711528 32.10297394 21.09092316 32.09765625 22.34765625 C32.09553383 24.2100016 32.09553383 24.2100016 32.09336853 26.10997009 C32.08870591 29.41605491 32.07971497 32.72207146 32.06866455 36.02813721 C32.05844827 39.3996115 32.05387045 42.77109283 32.04882812 46.14257812 C32.03777395 52.76174018 32.0204966 59.38086071 32 66 C25.07 66 18.14 66 11 66 C7.7250996 57.26693227 7.7250996 57.26693227 6.5625 53.5625 C4.04660643 46.00178358 1.26901751 40.0008255 -4 34 C-4 33.34 -4 32.68 -4 32 C-4.87205078 31.58041016 -4.87205078 31.58041016 -5.76171875 31.15234375 C-7.87710447 30.06327082 -9.82249501 28.86350123 -11.8125 27.5625 C-21.40597573 21.51754039 -30.69982094 19.9435757 -42 21 C-50.23526333 23.27603035 -55.99888762 26.55007475 -60.8125 33.6875 C-63.10756586 40.08952582 -62.84029569 45.85475564 -60.1875 52.125 C-54.45783948 62.34851191 -43.59435647 66.4874934 -33 70 C-31.57810217 70.4751921 -30.15622835 70.95045606 -28.734375 71.42578125 C-26.45074931 72.18624693 -24.16644579 72.94443564 -21.88037109 73.69750977 C1.70489508 81.49196414 28.09438678 90.52557096 40.5378418 113.75854492 C47.97238618 128.63366007 48.72187543 149.0636521 44.1640625 165.05859375 C36.3514717 184.79980473 21.96607885 197.54720565 2.98388672 206.14257812 C-27.72703581 219.41562267 -72.23730089 213.17598932 -102.7109375 202.00634766 C-114.81776467 197.18223533 -114.81776467 197.18223533 -117 195 C-117.09391296 193.09756238 -117.11743658 191.19161541 -117.11352539 189.28686523 C-117.11344986 188.0656749 -117.11337433 186.84448456 -117.11329651 185.58628845 C-117.10818911 184.24372314 -117.10297311 182.90115825 -117.09765625 181.55859375 C-117.09579199 180.19238842 -117.09436813 178.82618243 -117.09336853 177.4599762 C-117.08954394 173.85798305 -117.07971417 170.25603 -117.06866455 166.65405273 C-117.05844916 162.98096255 -117.05387064 159.30786591 -117.04882812 155.63476562 C-117.03809184 148.42315666 -117.02049553 141.21158905 -117 134 C-109.41 134 -101.82 134 -94 134 C-93.175 136.475 -92.35 138.95 -91.5 141.5 C-86.05471561 157.19657769 -79.35877639 172.64677315 -65 182 C-64.43539062 182.39058594 -63.87078125 182.78117188 -63.2890625 183.18359375 C-53.92456754 189.18478418 -41.6046384 189.06834001 -30.94140625 187.5703125 C-24.2915446 186.07616883 -19.26489496 183.40429092 -15 178 C-9.94001815 168.47834496 -11.94331322 158.90459135 -14.875 149.0625 C-16.2686957 146.50739121 -17.40935627 146.22466794 -20 145 C-21.17362869 144.23980869 -22.3400626 143.46842277 -23.5 142.6875 C-28.70900509 139.40669016 -34.29226128 137.25903476 -40 135 C-41.20398438 134.50242188 -42.40796875 134.00484375 -43.6484375 133.4921875 C-49.5092482 131.07868893 -55.32495431 128.84226222 -61.4375 127.125 C-69.45480173 124.75535417 -76.66898761 120.95238928 -84 117 C-84.95261719 116.49339844 -85.90523437 115.98679687 -86.88671875 115.46484375 C-97.11531154 109.70022081 -104.8858496 101.98862538 -111 92 C-111.39960937 91.36707031 -111.79921875 90.73414063 -112.2109375 90.08203125 C-120.18376744 76.0246732 -119.54346451 58.24151043 -115.3828125 43.1171875 C-110.09098422 26.13759542 -96.08587611 14.43869722 -80.8984375 6.34765625 C-56.63877794 -5.0294872 -25.82941957 -6.96151201 0 0 Z " fill="#FBFBFB" transform="translate(1041,101)"/>
<path d="M0 0 C0.99 0.33 1.98 0.66 3 1 C3.12117188 1.76183594 3.24234375 2.52367188 3.3671875 3.30859375 C4.73120486 11.71303916 6.11553493 19.96470446 9 28 C9.99 28 10.98 28 12 28 C12.28571429 36.57142857 12.28571429 36.57142857 10 40 C11.98 40 13.96 40 16 40 C16.14285714 47.42857143 16.14285714 47.42857143 15 51 C15.94875 50.175 16.8975 49.35 17.875 48.5 C20.75 46 20.75 46 23 46 C22.2822894 54.61252721 18.71610291 60.64877454 13 67 C15.8959138 66.91482606 17.54916126 66.45855481 19.59765625 64.375 C20.64368209 63.10023632 21.66804871 61.80733454 22.66796875 60.49609375 C23.10753906 60.00238281 23.54710937 59.50867188 24 59 C24.66 59 25.32 59 26 59 C25.5020163 62.73487777 25.12508244 64.81237635 23 68 C22.95919217 69.99958364 22.95745644 72.00045254 23 74 C22.67 74.66 22.34 75.32 22 76 C23.1446875 75.01 23.1446875 75.01 24.3125 74 C27 72 27 72 30 72 C29.49475028 76.37883089 26.78602813 78.78535216 24 82 C24 82.33 24 82.66 24 83 C28.04985125 82.7509574 28.04985125 82.7509574 32 82 C33.3169667 80.11629529 33.3169667 80.11629529 34 78 C36.046875 76.87109375 36.046875 76.87109375 38 76 C37.07481212 81.09397562 36.34207083 84.93139203 33 89 C32.835 89.845625 32.67 90.69125 32.5 91.5625 C31.90253513 94.47514124 31.18476121 95.04932035 29 97 C27.29767035 98.97165345 25.65454599 100.98771434 24 103 C25.485 103.495 25.485 103.495 27 104 C26.01 105.98 26.01 105.98 25 108 C26.97500483 110.41679432 26.97500483 110.41679432 30.7734375 110.23046875 C32.30735334 110.22647418 33.84126992 110.21170338 35.375 110.1875 C36.52742188 110.1865332 36.52742188 110.1865332 37.703125 110.18554688 C41.89794424 110.1786896 41.89794424 110.1786896 46.01806641 109.4934082 C49.0050934 108.74977904 51.93832032 108.94112154 55 109 C53.6970768 111.906521 52.29126619 113.80835408 50 116 C49.67 116.66 49.34 117.32 49 118 C48.01 118.33 47.02 118.66 46 119 C45.67 119.66 45.34 120.32 45 121 C43.35 120.67 41.7 120.34 40 120 C40 121.32 40 122.64 40 124 C34.36453202 125.92118227 34.36453202 125.92118227 31.6875 126.5 C31.130625 126.665 30.57375 126.83 30 127 C29.67 127.66 29.34 128.32 29 129 C30.98 129.33 32.96 129.66 35 130 C35 129.01 35 128.02 35 127 C39.99005032 127.46781722 44.15195521 129.88919744 48 133 C48.33 133.99 48.66 134.98 49 136 C45.59721683 137.17310561 43.71076696 136.81759626 40.375 135.5625 C37.26375341 134.35955956 37.26375341 134.35955956 34 134 C34.804375 134.721875 35.60875 135.44375 36.4375 136.1875 C39.02292072 139.02515689 39.68042813 140.27166147 40 144 C38.68 144 37.36 144 36 144 C33.49151236 145.92960588 32.28207359 148.13998967 31 151 C30.01 150.67 29.02 150.34 28 150 C27.3125 147.9375 27.3125 147.9375 27 146 C26.401875 146.350625 25.80375 146.70125 25.1875 147.0625 C23 148 23 148 20 147 C21.02703822 149.52246503 21.02703822 149.52246503 23 152 C26.38824997 153.18241655 26.38824997 153.18241655 30 154 C32.9375 155.5 32.9375 155.5 35 157 C35 157.66 35 158.32 35 159 C36.98 159.33 38.96 159.66 41 160 C40.67 160.99 40.34 161.98 40 163 C39.01 163 38.02 163 37 163 C37 163.66 37 164.32 37 165 C38.65 165.66 40.3 166.32 42 167 C40.76044505 170.71866485 38.81445146 172.32283886 36 175 C35.34 175.66 34.68 176.32 34 177 C27.88857239 177.63660704 22.7587934 175.94663439 17 174 C17 174.66 17 175.32 17 176 C17.99 176.33 18.98 176.66 20 177 C20.2475 177.598125 20.495 178.19625 20.75 178.8125 C22.68799499 182.20399123 25.5674469 183.22015765 29 185 C29 185.66 29 186.32 29 187 C30.98 187.66 32.96 188.32 35 189 C35.66 188.34 36.32 187.68 37 187 C36.67 188.65 36.34 190.3 36 192 C39.96 192 43.92 192 48 192 C48.33 192.99 48.66 193.98 49 195 C47.35 195 45.7 195 44 195 C44.33 195.66 44.66 196.32 45 197 C36.64736824 197.95458649 28.40215965 198.11039334 20 198 C19.67 198.66 19.34 199.32 19 200 C19.62648438 200.06058594 20.25296875 200.12117187 20.8984375 200.18359375 C21.71570313 200.26738281 22.53296875 200.35117187 23.375 200.4375 C24.59316406 200.55931641 24.59316406 200.55931641 25.8359375 200.68359375 C28 201 28 201 30 202 C30 202.66 30 203.32 30 204 C31.98 204 33.96 204 36 204 C36.33 204.99 36.66 205.98 37 207 C39.30368736 208.06652192 41.64018187 209.06421005 44 210 C44.99 210.66 45.98 211.32 47 212 C50.14221967 211.68493373 50.14221967 211.68493373 53 211 C52.75 213.375 52.75 213.375 52 216 C49.9375 217.3125 49.9375 217.3125 48 218 C48 218.99 48 219.98 48 221 C42.5073922 221.14067926 37.50975616 220.70378034 32.125 219.5625 C27.61133505 218.65151381 23.16106027 217.83823526 18.5625 217.5 C13.7527595 217.11620067 9.48676111 215.72317637 5 214 C5 214.99 5 215.98 5 217 C5.9590625 217.1546875 5.9590625 217.1546875 6.9375 217.3125 C7.9584375 217.6528125 7.9584375 217.6528125 9 218 C9.33 218.99 9.66 219.98 10 221 C12.30657014 221.75407101 14.645752 222.411438 17 223 C17.825 223.350625 18.65 223.70125 19.5 224.0625 C22.63060038 225.23647514 25.68947735 225.61052675 29 226 C29.33 226.99 29.66 227.98 30 229 C30.33 228.67 30.66 228.34 31 228 C32.66617115 227.95936168 34.33388095 227.957279 36 228 C36.33 229.32 36.66 230.64 37 232 C36.05125 231.979375 35.1025 231.95875 34.125 231.9375 C31.09333717 231.77448174 31.09333717 231.77448174 29 233 C28.34 232.01 27.68 231.02 27 230 C25.68 230 24.36 230 23 230 C22.34 230.66 21.68 231.32 21 232 C17.375 231.625 17.375 231.625 14 231 C14 231.66 14 232.32 14 233 C14.99 233 15.98 233 17 233 C17.09079834 233.62938477 17.18159668 234.25876953 17.27514648 234.90722656 C17.51434814 235.5978418 17.7535498 236.28845703 18 237 C20.73112741 238.12684953 23.2330736 238.98163314 26.0625 239.75 C26.82111328 239.97042969 27.57972656 240.19085938 28.36132812 240.41796875 C30.23656113 240.96048899 32.11778259 241.48223106 34 242 C34 242.33 34 242.66 34 243 C31.03 243 28.06 243 25 243 C25 243.66 25 244.32 25 245 C26.299375 245.433125 26.299375 245.433125 27.625 245.875 C30.75 246.91666667 33.875 247.95833333 37 249 C37 248.01 37 247.02 37 246 C38.32 246 39.64 246 41 246 C41 248 41 248 39.5 249.625 C39.005 250.07875 38.51 250.5325 38 251 C38.99 251.99 39.98 252.98 41 254 C40.05253906 254.03867187 40.05253906 254.03867187 39.0859375 254.078125 C32.05989678 254.52358003 25.8500043 256.06941168 19.1640625 258.2578125 C15.86801503 259.03095944 14.21786821 258.83738305 11 258 C9.39696373 257.93628632 7.79162328 257.91355786 6.1875 257.9375 C5.00220703 257.95103516 5.00220703 257.95103516 3.79296875 257.96484375 C3.20128906 257.97644531 2.60960938 257.98804688 2 258 C2.66 258.33 3.32 258.66 4 259 C4 259.66 4 260.32 4 261 C5.98 261 7.96 261 10 261 C10 262.32 10 263.64 10 265 C13.63 265.99 17.26 266.98 21 268 C21 271 21 271 20 275 C17.36 275.66 14.72 276.32 12 277 C13.79133978 277.05391993 15.58313899 277.09275571 17.375 277.125 C18.87160156 277.15980469 18.87160156 277.15980469 20.3984375 277.1953125 C23.16262173 277.27216848 23.16262173 277.27216848 25 275 C27.28252362 274.72255039 29.57841497 274.54970322 31.875 274.4375 C37.51135685 274.18072642 37.51135685 274.18072642 43 273 C43 273.66 43 274.32 43 275 C43.99 275.33 44.98 275.66 46 276 C47.9092408 279.6419422 48.40655545 283.12172262 48.75 287.1875 C48.89695313 288.75564453 48.89695313 288.75564453 49.046875 290.35546875 C49 293 49 293 47 295 C44.25 295.44921875 44.25 295.44921875 41 295.6875 C39.9275 295.77386719 38.855 295.86023438 37.75 295.94921875 C35 296 35 296 33 295 C33 294.34 33 293.68 33 293 C30.69 293 28.38 293 26 293 C25.67 293.99 25.34 294.98 25 296 C24.34 296 23.68 296 23 296 C23 296.66 23 297.32 23 298 C22.10796875 297.98839844 21.2159375 297.97679687 20.296875 297.96484375 C19.12640625 297.95582031 17.9559375 297.94679688 16.75 297.9375 C15.58984375 297.92589844 14.4296875 297.91429687 13.234375 297.90234375 C10.59022872 297.98217908 8.50173909 298.21356222 6 299 C6.825 299.53625 7.65 300.0725 8.5 300.625 C11 303 11 303 11.375 306.1875 C11 309 11 309 10 310 C5.99779347 310.14355117 2.00558317 310.04216403 -2 310 C-2 304.06 -2 298.12 -2 292 C-2.99 291.67 -3.98 291.34 -5 291 C-7.57585768 292.82194812 -9.77124444 294.77124444 -12 297 C-12.99 297 -13.98 297 -15 297 C-15.33 298.65 -15.66 300.3 -16 302 C-16.99 302 -17.98 302 -19 302 C-19 301.34 -19 300.68 -19 300 C-19.7425 300.495 -20.485 300.99 -21.25 301.5 C-24 303 -24 303 -28 303 C-28.33 304.32 -28.66 305.64 -29 307 C-30.32 307.33 -31.64 307.66 -33 308 C-33.33 306.35 -33.66 304.7 -34 303 C-35.65 303 -37.3 303 -39 303 C-39 302.34 -39 301.68 -39 301 C-42.12197478 302.3089572 -42.12197478 302.3089572 -44 305 C-45.69172156 305.98949751 -47.38576504 306.9767548 -49.11328125 307.90234375 C-51.07437412 308.96605499 -51.07437412 308.96605499 -52.83984375 310.5859375 C-55.68072973 312.44561331 -57.8819662 312.50445469 -61.25 312.6875 C-62.32765625 312.75324219 -63.4053125 312.81898438 -64.515625 312.88671875 C-65.33546875 312.92410156 -66.1553125 312.96148437 -67 313 C-67 312.01 -67 311.02 -67 310 C-67.556875 310.350625 -68.11375 310.70125 -68.6875 311.0625 C-72.30075396 312.52733269 -74.61134571 311.55647348 -78.14453125 310.140625 C-82.27865062 308.35808597 -86.20860438 306.44606169 -90 304 C-89.67 303.01 -89.34 302.02 -89 301 C-81.41 300.01 -73.82 299.02 -66 298 C-67.32 297.67 -68.64 297.34 -70 297 C-70 296.01 -70 295.02 -70 294 C-71.27875 293.690625 -72.5575 293.38125 -73.875 293.0625 C-76.10101675 292.52394756 -77.94739999 292.0263 -80 291 C-80 290.34 -80 289.68 -80 289 C-80.99 288.67 -81.98 288.34 -83 288 C-83 287.34 -83 286.68 -83 286 C-74.42 285.67 -65.84 285.34 -57 285 C-57 284.34 -57 283.68 -57 283 C-57.969375 282.87625 -58.93875 282.7525 -59.9375 282.625 C-64.34815777 282.00136191 -68.66477759 281.01253494 -73 280 C-73 279.34 -73 278.68 -73 278 C-74.98 278 -76.96 278 -79 278 C-79 277.01 -79 276.02 -79 275 C-80.0725 274.9175 -81.145 274.835 -82.25 274.75 C-86.33859877 273.93228025 -87.59547153 273.32934711 -90 270 C-90.8125 267.3125 -90.8125 267.3125 -91 265 C-88.96428714 262.96428714 -84.87432194 263.63123456 -82.0625 263.5 C-76.87297382 263.45708764 -76.87297382 263.45708764 -72 262 C-69.97545364 262.16847014 -67.95473975 262.38434684 -65.9375 262.625 C-60.72188912 263.07629601 -57.2100391 262.79177761 -52.41015625 260.8359375 C-47.46617226 259.12116834 -42.17106227 258.6793513 -37 258 C-37 257.67 -37 257.34 -37 257 C-39.31 256.67 -41.62 256.34 -44 256 C-44 255.34 -44 254.68 -44 254 C-44.66 254.33 -45.32 254.66 -46 255 C-46.33 255.99 -46.66 256.98 -47 258 C-47.7425 257.979375 -48.485 257.95875 -49.25 257.9375 C-51.93495687 257.83562424 -51.93495687 257.83562424 -54 258.8125 C-54.99 258.9053125 -54.99 258.9053125 -56 259 C-57.68933922 257.3563186 -59.35259924 255.6857124 -61 254 C-62.82867866 253.1091443 -62.82867866 253.1091443 -64.75 252.4375 C-68 251 -68 251 -68.9375 248.8125 C-68.958125 248.214375 -68.97875 247.61625 -69 247 C-69.53109375 247.22558594 -70.0621875 247.45117188 -70.609375 247.68359375 C-74.13913459 248.15076781 -76.14843129 246.71442246 -79.25 245.0625 C-80.32765625 244.49660156 -81.4053125 243.93070313 -82.515625 243.34765625 C-83.33546875 242.90292969 -84.1553125 242.45820313 -85 242 C-85 241.34 -85 240.68 -85 240 C-83.85144531 240.03480469 -82.70289063 240.06960938 -81.51953125 240.10546875 C-72.94932345 240.28418837 -65.31146028 239.96089725 -56.96875 237.73828125 C-50.37740832 236.09911865 -43.65495981 235.38122599 -37 237 C-37 236.34 -37 235.68 -37 235 C-38.65 235.33 -40.3 235.66 -42 236 C-41.125 231.25 -41.125 231.25 -40 229 C-40.556875 229.515625 -41.11375 230.03125 -41.6875 230.5625 C-44 232 -44 232 -46.25 232 C-50.19532284 230.56533715 -53.52838533 228.33451011 -57 226 C-56.34 224.35 -55.68 222.7 -55 221 C-55.63808594 221.01160156 -56.27617188 221.02320313 -56.93359375 221.03515625 C-57.75988281 221.04417969 -58.58617187 221.05320312 -59.4375 221.0625 C-60.67306641 221.07990234 -60.67306641 221.07990234 -61.93359375 221.09765625 C-64 221 -64 221 -65 220 C-65.125 217.5 -65.125 217.5 -65 215 C-64.67 214.67 -64.34 214.34 -64 214 C-66.64 214 -69.28 214 -72 214 C-72 213.34 -72 212.68 -72 212 C-69.14903484 210.57451742 -66.74188507 210.94428241 -63.5625 211 C-58.00514904 211.05150995 -52.62484517 210.78197109 -47.109375 210.12109375 C-45 210 -45 210 -43 211 C-43.33 210.01 -43.66 209.02 -44 208 C-45.05960938 208.01160156 -46.11921875 208.02320313 -47.2109375 208.03515625 C-48.59895658 208.04453476 -49.98697755 208.05363489 -51.375 208.0625 C-52.07367188 208.07087891 -52.77234375 208.07925781 -53.4921875 208.08789062 C-58.7734375 208.11328125 -58.7734375 208.11328125 -61 207 C-61 206.34 -61 205.68 -61 205 C-65.52381127 202.95698846 -70.16371695 201.99043705 -75 201 C-75 199.35 -75 197.7 -75 196 C-75.763125 195.71125 -76.52625 195.4225 -77.3125 195.125 C-80 194 -80 194 -83 192 C-83 191.34 -83 190.68 -83 190 C-68.69137585 189.2424846 -55.11763527 192.28615793 -41.4375 196.1484375 C-36.65043149 197.33432493 -31.91810725 197.7955049 -27 198 C-25.74335022 195.09399739 -25 193.20395416 -25 190 C-25.33 190.33 -25.66 190.66 -26 191 C-27.99958364 191.04080783 -30.00045254 191.04254356 -32 191 C-32.33 190.01 -32.66 189.02 -33 188 C-33.68707031 187.9278125 -34.37414062 187.855625 -35.08203125 187.78125 C-38.83951885 186.77522922 -41.56323791 184.7181317 -44.6875 182.5 C-49.74422626 179.06481761 -53.48431823 177.15720763 -59.734375 177.10546875 C-63.49451241 176.93042787 -66.56246695 175.46413445 -70 174 C-70 172.68 -70 171.36 -70 170 C-65.61433929 168.91205498 -61.34417235 168.87102686 -56.85546875 168.90234375 C-56.08568192 168.9037587 -55.31589508 168.90517365 -54.52278137 168.90663147 C-52.07764712 168.91220394 -49.63260632 168.92475129 -47.1875 168.9375 C-45.52408987 168.94251856 -43.8606783 168.94708085 -42.19726562 168.95117188 C-38.13147472 168.96216434 -34.06575317 168.9794099 -30 169 C-30 168.34 -30 167.68 -30 167 C-36.97761838 166.13852726 -36.97761838 166.13852726 -44 166 C-44.33 165.01 -44.66 164.02 -45 163 C-46.32 163.33 -47.64 163.66 -49 164 C-49.309375 163.278125 -49.61875 162.55625 -49.9375 161.8125 C-52.46831053 158.36139473 -55.08607199 157.03595983 -58.84375 155.11328125 C-61 154 -61 154 -64 152 C-64.144375 151.01 -64.28875 150.02 -64.4375 149 C-64.7159375 147.515 -64.7159375 147.515 -65 146 C-66.91666667 144.83333333 -66.91666667 144.83333333 -69 144 C-70.25 141.875 -70.25 141.875 -71 140 C-65.48016461 139.82351133 -61.05025351 140.30050931 -55.6875 141.8125 C-49.48175568 143.47729236 -43.28379236 144.74586726 -36.9375 145.75 C-36.15270264 145.87737549 -35.36790527 146.00475098 -34.55932617 146.13598633 C-29.98383001 146.83452415 -25.62767446 147.122913 -21 147 C-21.32960216 141.98464948 -21.32960216 141.98464948 -24 138 C-24.7734375 138.5878125 -24.7734375 138.5878125 -25.5625 139.1875 C-28 140 -28 140 -31.5 138.8125 C-35 137 -35 137 -37.0625 135.3125 C-39.74046384 133.49839546 -41.84306671 133.78475455 -45 134 C-44.01 132.68 -43.02 131.36 -42 130 C-42.99 129.67 -43.98 129.34 -45 129 C-45 128.34 -45 127.68 -45 127 C-45.66 127 -46.32 127 -47 127 C-47 126.34 -47 125.68 -47 125 C-47.680625 124.95875 -48.36125 124.9175 -49.0625 124.875 C-53.16132294 123.65407402 -56.20740313 121.2352275 -59 118 C-59 117.01 -59 116.02 -59 115 C-53.63181842 115.32209089 -49.33616304 116.55227813 -44.3125 118.5 C-37.50794591 121.05262732 -31.23494962 121.86779992 -24 122 C-27.77784156 122 -30.94341661 119.03772226 -34 117 C-34.474375 115.88625 -34.94875 114.7725 -35.4375 113.625 C-37.46757588 108.91522397 -39.29767689 106.79683209 -43.9375 104.625 C-47.81717294 102.56639803 -49.46864849 100.57367272 -52 97 C-52 96.01 -52 95.02 -52 94 C-46.60672383 94.97407079 -41.42727323 96.6014125 -36.1796875 98.16015625 C-33.06470012 99.12768509 -33.06470012 99.12768509 -30 99 C-30.928125 98.525625 -31.85625 98.05125 -32.8125 97.5625 C-36.42040704 95.15722864 -37.38888283 92.40454544 -38.54296875 88.328125 C-39.17308024 85.11832631 -39.2081365 82.26080515 -39 79 C-36.0737247 80.31177858 -34.24710766 81.75289234 -32 84 C-29.90010348 85.17574711 -29.90010348 85.17574711 -28 86 C-28 86.66 -28 87.32 -28 88 C-23.44508386 90.20399168 -18.97093824 90.58846263 -14 91 C-14.5775 90.69707031 -15.155 90.39414063 -15.75 90.08203125 C-17.97030607 88.82925439 -20.01907882 87.6073264 -22 86 C-22.5 83.1875 -22.5 83.1875 -22 81 C-23.0828125 80.62875 -23.0828125 80.62875 -24.1875 80.25 C-28.63091308 78.27514974 -31.35987965 76.26601581 -33.58203125 71.87109375 C-33.98808594 70.73800781 -34.39414063 69.60492188 -34.8125 68.4375 C-35.23144531 67.30183594 -35.65039062 66.16617188 -36.08203125 64.99609375 C-37 62 -37 62 -37 59 C-33.62472034 60.46388534 -31.43113099 62.37610684 -28.8125 64.9375 C-24.52900311 68.85810928 -20.62677082 70.72300237 -15 72 C-15.50660156 71.25556641 -15.50660156 71.25556641 -16.0234375 70.49609375 C-19.90922565 64.57756672 -21.73333137 58.96667745 -23 52 C-18.45731367 53.26772642 -15.59482742 54.98695896 -12 58 C-11.81824219 56.64455078 -11.81824219 56.64455078 -11.6328125 55.26171875 C-11.46523437 54.08222656 -11.29765625 52.90273437 -11.125 51.6875 C-10.96257812 50.51574219 -10.80015625 49.34398437 -10.6328125 48.13671875 C-10 45 -10 45 -8 42 C-8.42497025 39.78749657 -8.42497025 39.78749657 -9.375 37.4375 C-11.13479758 32.17361207 -11.31625153 27.50511925 -11 22 C-10.34 22 -9.68 22 -9 22 C-8.01 24.31 -7.02 26.62 -6 29 C-5.89042969 27.98421875 -5.78085938 26.9684375 -5.66796875 25.921875 C-3.08265975 3.08265975 -3.08265975 3.08265975 0 0 Z " fill="#F8F8F8" transform="translate(105,71)"/>
<path d="M0 0 C0.00203479 0.83393692 0.00203479 0.83393692 0.00411069 1.68472105 C0.08476261 34.63607245 0.17571797 67.5873774 0.28005161 100.53866205 C0.29257047 104.49525689 0.30500324 108.45185199 0.31738281 112.40844727 C0.31984881 113.19613339 0.3223148 113.98381952 0.32485552 114.79537492 C0.36457807 127.54909112 0.39732764 140.30281618 0.42749982 153.05655814 C0.458615 166.14329216 0.4972247 179.2299886 0.54279006 192.31668037 C0.5706696 200.39171139 0.59270496 208.46671492 0.60726251 216.54178112 C0.61905189 222.73398316 0.64126901 228.92610788 0.66738319 235.11826515 C0.67646112 237.65831771 0.6821497 240.19838497 0.68421364 242.73845291 C0.68753456 246.20432499 0.703008 249.66993809 0.7215271 253.13575745 C0.718625 254.64598814 0.718625 254.64598814 0.71566427 256.18672854 C0.75686257 264.99797179 0.75686257 264.99797179 4.37426758 272.85083008 C6.23351652 274.16506416 7.81925449 274.77678508 10.01171875 275.38671875 C10.69451904 275.58225342 11.37731934 275.77778809 12.08081055 275.97924805 C12.94101807 276.21297119 13.80122559 276.44669434 14.6875 276.6875 C18.8021875 277.8321875 18.8021875 277.8321875 23 279 C23 285.93 23 292.86 23 300 C-14.62 300 -52.24 300 -91 300 C-91 293.07 -91 286.14 -91 279 C-83.8125 277.1875 -83.8125 277.1875 -81.57739258 276.63745117 C-77.59984782 275.60452496 -74.19435471 274.61562615 -71 272 C-68.14172589 266.57722223 -67.56955373 262.26263423 -67.6257782 256.19494629 C-67.62180379 255.33227473 -67.61782939 254.46960317 -67.61373454 253.58079004 C-67.6041438 250.70277868 -67.61591016 247.82526285 -67.62768555 244.94726562 C-67.62525652 242.87879758 -67.62153613 240.8103307 -67.61662292 238.74186707 C-67.60722552 233.13242351 -67.61662981 227.52315479 -67.62995505 221.9137249 C-67.64128046 216.04066826 -67.6371612 210.16762009 -67.63520813 204.29455566 C-67.6343255 194.43218127 -67.64539908 184.56987566 -67.66381836 174.70751953 C-67.68498546 163.30868126 -67.68849565 151.90994374 -67.6822564 140.5110898 C-67.67655967 129.54137118 -67.68221207 118.571688 -67.69342995 107.60197449 C-67.69807182 102.93547408 -67.69895156 98.26899537 -67.6968441 93.60249329 C-67.69495902 88.10642184 -67.70308211 82.61045278 -67.7189045 77.11440468 C-67.72314319 75.09842159 -67.72400069 73.08242811 -67.72121429 71.06644249 C-67.71798573 68.31253426 -67.72709143 65.55893063 -67.73930359 62.80505371 C-67.73552427 62.00922835 -67.73174494 61.21340299 -67.72785109 60.3934617 C-67.7734588 54.57056288 -68.61584877 49.47993761 -71.5 44.3125 C-77.58943729 38.6797705 -86.06427302 37.36041034 -94 36 C-94 29.73 -94 23.46 -94 17 C-85.90817038 14.99977245 -77.98355494 13.48488245 -69.703125 12.52734375 C-66.23240813 12.03309609 -62.89458401 11.34020277 -59.48242188 10.55541992 C-54.71894181 9.48963342 -49.91932735 8.60235604 -45.125 7.6875 C-44.01108887 7.47456299 -42.89717773 7.26162598 -41.74951172 7.04223633 C-38.16678504 6.35913377 -34.58345116 5.67929106 -31 5 C-29.75347656 4.7628125 -28.50695313 4.525625 -27.22265625 4.28125 C-23.52424495 3.57897169 -19.82482041 2.88231254 -16.125 2.1875 C-14.97273926 1.96860107 -13.82047852 1.74970215 -12.63330078 1.52416992 C-11.56063965 1.32412354 -10.48797852 1.12407715 -9.3828125 0.91796875 C-7.96572998 0.65149536 -7.96572998 0.65149536 -6.52001953 0.37963867 C-4 0 -4 0 0 0 Z " fill="#FCFCFC" transform="translate(1354,8)"/>
<path d="M0 0 C7.59 0 15.18 0 23 0 C23 17.82 23 35.64 23 54 C39.83 54 56.66 54 74 54 C74 62.58 74 71.16 74 80 C56.84 80 39.68 80 22 80 C22.04036816 96.36894154 22.0972427 112.73754714 22.18390274 129.10629749 C22.2236219 136.70750571 22.25605038 144.30861147 22.27099609 151.90991211 C22.28404975 158.53933966 22.31110835 165.16854109 22.35461307 171.79784125 C22.37714509 175.30432296 22.3929157 178.81052665 22.39188385 182.31708717 C22.39099221 186.24262824 22.42138422 190.16760624 22.45410156 194.09301758 C22.4490712 195.24101334 22.44404083 196.38900909 22.43885803 197.5717926 C22.53696688 205.21384345 23.31292749 213.6291529 28.44708633 219.71545124 C33.96085719 224.49827874 38.57049732 225.51417322 45.703125 225.375 C55.13160888 224.30256581 62.47020084 219.6642362 69 213 C72.60286506 214.52524036 74.94299983 216.67485437 77.6875 219.4375 C78.86892578 220.61119141 78.86892578 220.61119141 80.07421875 221.80859375 C82 224 82 224 83 227 C73.5365006 244.51498461 55.3736444 257.42212429 37 264 C17.64728424 267.80477323 -5.20070062 266.92241137 -22 256 C-25.1875 253.75 -25.1875 253.75 -27 252 C-27 251.34 -27 250.68 -27 250 C-27.99 249.67 -28.98 249.34 -30 249 C-36.75690999 240.42552285 -39.79553525 231.56150345 -42 221 C-42.26517001 219.83835437 -42.26517001 219.83835437 -42.53569698 218.65324116 C-43.03623194 215.79295405 -43.12293543 213.13907319 -43.12025452 210.23564148 C-43.12162918 209.08444321 -43.12300385 207.93324493 -43.12442017 206.74716187 C-43.12082489 205.49343781 -43.11722961 204.23971375 -43.11352539 202.94799805 C-43.11324316 201.60737612 -43.11340196 200.26675404 -43.1139679 198.9261322 C-43.11425445 195.29429911 -43.10838055 191.66249914 -43.10139394 188.03067374 C-43.09513689 184.23234968 -43.09455474 180.43402483 -43.09336853 176.63569641 C-43.09026215 169.44641425 -43.0820581 162.25714732 -43.07201904 155.06787187 C-43.06083639 146.88169854 -43.05534203 138.69552448 -43.05032361 130.50934541 C-43.03987491 113.67288662 -43.02153804 96.83644881 -43 80 C-51.91 80 -60.82 80 -70 80 C-70 73.73 -70 67.46 -70 61 C-68.41832031 60.50371094 -66.83664062 60.00742188 -65.20703125 59.49609375 C-43.18877831 52.46134653 -27.03800881 43.91394137 -12 26 C-11.54367187 25.46761719 -11.08734375 24.93523437 -10.6171875 24.38671875 C-5.08798934 17.37959027 -2.78186019 8.34558057 0 0 Z " fill="#FCFCFC" transform="translate(1171,48)"/>
<path d="M0 0 C52.07673861 0 52.07673861 0 64 11 C64.60328125 11.52722656 65.2065625 12.05445313 65.828125 12.59765625 C74.39393648 21.07036108 77.55649422 33.08756124 77.625 44.8125 C77.48636782 52.16073893 76.27549213 58.35802984 73 65 C72.71125 65.7115625 72.4225 66.423125 72.125 67.15625 C67.96932715 76.8033477 59.54079891 83.10427717 50 87 C33.71720504 90.61839888 16.67999467 89 0 89 C0 59.63 0 30.26 0 0 Z " fill="#F4F4F4" transform="translate(879,390)"/>
<path d="M0 0 C12.6225 -0.12375 12.6225 -0.12375 25.5 -0.25 C28.14193359 -0.28641602 30.78386719 -0.32283203 33.50585938 -0.36035156 C35.61848133 -0.37204271 37.73111236 -0.38223353 39.84375 -0.390625 C41.46651855 -0.4213208 41.46651855 -0.4213208 43.12207031 -0.45263672 C50.91738801 -0.45620927 56.29541284 0.68938266 62.27734375 6.03515625 C62.82519531 6.70417969 63.37304688 7.37320312 63.9375 8.0625 C64.50339844 8.73410156 65.06929687 9.40570313 65.65234375 10.09765625 C68.31660832 13.85851668 68.16368125 17.33933966 68.1875 21.8125 C68.20167969 23.01519531 68.21585938 24.21789062 68.23046875 25.45703125 C67.87964288 30.85023573 66.60213567 34.82259738 63 38.875 C62.484375 39.47054687 61.96875 40.06609375 61.4375 40.6796875 C60 42 60 42 58 42 C58 42.66 58 43.32 58 44 C58.845625 44.144375 59.69125 44.28875 60.5625 44.4375 C65.52331869 46.69241759 68.07978354 50.4869382 71 55 C73.09750723 61.2925217 73.20408948 68.73175713 70.90625 74.96875 C66.89509746 82.0522747 61.7655947 86.37493538 54 89 C51.34867859 89.24050903 51.34867859 89.24050903 48.4753418 89.22705078 C47.37959839 89.22680908 46.28385498 89.22656738 45.15490723 89.22631836 C44.01453003 89.21608643 42.87415283 89.20585449 41.69921875 89.1953125 C40.64271118 89.19329834 39.58620361 89.19128418 38.49768066 89.18920898 C34.56090945 89.1787655 30.62420025 89.15084292 26.6875 89.125 C17.880625 89.08375 9.07375 89.0425 0 89 C0 59.63 0 30.26 0 0 Z " fill="#F0F0F0" transform="translate(716,390)"/>
<path d="M0 0 C4.62 0 9.24 0 14 0 C14.61875 1.60101563 14.61875 1.60101563 15.25 3.234375 C18.45425181 11.50826465 21.69377701 19.7662874 25 28 C28.46244469 36.62642885 31.8562825 45.27759839 35.20507812 53.94873047 C35.9800569 55.9485375 36.76235791 57.94532454 37.546875 59.94140625 C38.23523438 61.70291016 38.23523438 61.70291016 38.9375 63.5 C39.33839844 64.5209375 39.73929687 65.541875 40.15234375 66.59375 C41 69 41 69 41 71 C41.66 71 42.32 71 43 71 C43.14695312 70.42894531 43.29390625 69.85789062 43.4453125 69.26953125 C44.88050009 64.08141059 46.69699373 59.30704062 49 54.4375 C51.63258257 48.85089945 51.63258257 48.85089945 53.9375 43.125 C54.17339844 42.48820312 54.40929687 41.85140625 54.65234375 41.1953125 C55.64083122 34.95340287 53.17492392 29.4039539 50.75 23.8125 C50.43861084 23.07435059 50.12722168 22.33620117 49.80639648 21.57568359 C48.87910993 19.38019282 47.94150826 17.18942452 47 15 C46.01714113 12.70991443 45.03743442 10.41847037 44.0625 8.125 C43.66160156 7.19945312 43.26070313 6.27390625 42.84765625 5.3203125 C42 3 42 3 42 0 C43.95766281 -0.08082094 45.91626728 -0.13910778 47.875 -0.1875 C49.51082031 -0.23970703 49.51082031 -0.23970703 51.1796875 -0.29296875 C52.11039062 -0.19628906 53.04109375 -0.09960938 54 0 C55.72614321 2.58921481 56.49452235 4.23496161 57.375 7.125 C59.37158872 13.33773547 62.05884625 19.18305148 65 25 C65.37511719 24.03320312 65.75023437 23.06640625 66.13671875 22.0703125 C69.09732108 14.51329245 72.23288028 7.20184653 76 0 C79.96 0 83.92 0 88 0 C87.28448204 3.57758979 86.69384699 6.03790554 85.29296875 9.2578125 C84.78624634 10.43573364 84.78624634 10.43573364 84.26928711 11.63745117 C83.91229736 12.45834229 83.55530762 13.2792334 83.1875 14.125 C82.46207036 15.83140651 81.73810224 17.53843512 81.015625 19.24609375 C79.86179973 21.96850058 78.70598324 24.68999096 77.546875 27.41015625 C74.79551748 34.29823792 74.32314487 39.05042612 77.2421875 45.92578125 C78.26473791 48.13777501 79.30983126 50.33946048 80.375 52.53125 C82.49918578 57.06556964 84.21530281 61.71351807 85.921875 66.41796875 C86.85187986 69.1052496 86.85187986 69.1052496 89 71 C89.3403125 70.07703125 89.680625 69.1540625 90.03125 68.203125 C92.91570597 60.42481676 95.89861672 52.69451487 99 45 C101.42408089 38.9829726 103.8030972 32.95589019 106.0625 26.875 C108.27452777 20.92259275 110.52368872 14.98586153 112.8125 9.0625 C113.26604858 7.87986572 113.26604858 7.87986572 113.72875977 6.67333984 C115.88319683 1.11680317 115.88319683 1.11680317 117 0 C119.18639453 -0.07258946 121.37500389 -0.08373783 123.5625 -0.0625 C125.35880859 -0.04896484 125.35880859 -0.04896484 127.19140625 -0.03515625 C128.11824219 -0.02355469 129.04507813 -0.01195312 130 0 C128.90376897 6.8209931 126.55497611 12.60363524 123.73999023 18.85375977 C121.40394293 24.04196485 119.31152807 29.28403334 117.3046875 34.609375 C115.52963268 39.22239172 113.62665058 43.77900922 111.72875977 48.3425293 C109.54638256 53.61380963 107.47652157 58.92186936 105.4375 64.25 C102.92630398 70.79886063 100.18823956 77.16472841 97.1640625 83.49609375 C95.92334539 86.04132933 95.92334539 86.04132933 95 89 C90.71 89 86.42 89 82 89 C81.5153125 87.84886719 81.030625 86.69773437 80.53125 85.51171875 C80.21091797 84.75125244 79.89058594 83.99078613 79.56054688 83.20727539 C78.84737778 81.51284209 78.13515385 79.81801071 77.42382812 78.12280273 C75.53350065 73.6216473 73.62792589 69.12824727 71.6875 64.6484375 C71.32076172 63.79548096 70.95402344 62.94252441 70.57617188 62.0637207 C69.86969668 60.42174284 69.15762969 58.78215736 68.43945312 57.14526367 C68.11912109 56.39736572 67.79878906 55.64946777 67.46875 54.87890625 C67.04239258 53.89772827 67.04239258 53.89772827 66.60742188 52.89672852 C66 51 66 51 66 47 C65.34 47 64.68 47 64 47 C63.773125 48.093125 63.54625 49.18625 63.3125 50.3125 C62.20379694 54.7550654 60.37894297 58.66768295 58.4296875 62.796875 C56.46055005 67.20860371 54.79954273 71.71707386 53.14355469 76.25390625 C51.56317565 80.56914093 49.84331203 84.78983169 48 89 C43.71 89 39.42 89 35 89 C30.48773488 78.3967368 26.05743808 67.78752308 22 57 C18.22031801 47.04405532 14.21669488 37.20843263 10.046875 27.41015625 C0 3.75516251 0 3.75516251 0 0 Z " fill="#F3F3F3" transform="translate(450,390)"/>
<path d="M0 0 C11 0 11 0 14.015625 2.30859375 C14.75296875 3.34113281 15.4903125 4.37367188 16.25 5.4375 C16.65927734 5.98664063 17.06855469 6.53578125 17.49023438 7.1015625 C18.6876083 8.71435187 19.84475831 10.35676828 21 12 C22.15791116 13.50676901 23.32365352 15.00757912 24.5 16.5 C25.05171875 17.21800781 25.6034375 17.93601562 26.171875 18.67578125 C28.31006686 21.39420893 30.52523727 24.03947267 32.75 26.6875 C37.8891394 32.80439665 42.8116785 39.0809209 47.72900391 45.37646484 C49.5787573 47.73928852 51.44273005 50.09049353 53.3125 52.4375 C53.88613281 53.15808594 54.45976563 53.87867188 55.05078125 54.62109375 C57.64815558 57.79103557 60.33295527 60.88844782 63 64 C63.33 42.88 63.66 21.76 64 0 C68.62 0 73.24 0 78 0 C78 29.37 78 58.74 78 89 C66 89 66 89 62.44921875 86.25390625 C61.49111507 85.05243 60.57094043 83.81989447 59.6875 82.5625 C59.18661865 81.91651855 58.6857373 81.27053711 58.16967773 80.60498047 C56.74635631 78.75907083 55.3713278 76.88464485 54 75 C52.85853231 73.53824707 51.71345942 72.07929109 50.5625 70.625 C49.77359375 69.59052734 49.77359375 69.59052734 48.96875 68.53515625 C46.22240192 64.99868819 43.39117173 61.53327022 40.5625 58.0625 C36.31913385 52.85481433 32.0968874 47.6323205 27.91015625 42.37890625 C24.96384488 38.70957368 21.97215089 35.07769117 18.98046875 31.4453125 C17.27163231 29.33538822 15.62907486 27.17209981 14 25 C13.67 46.12 13.34 67.24 13 89 C8.71 89 4.42 89 0 89 C0 59.63 0 30.26 0 0 Z " fill="#F2F2F2" transform="translate(1376,390)"/>
<path d="M0 0 C0.98613281 -0.02449219 1.97226563 -0.04898437 2.98828125 -0.07421875 C14.44412445 -0.11949876 23.20214483 4.07658693 31.390625 11.953125 C32.8125 13.5 32.8125 13.5 34.75 16.375 C34.53243322 18.99616171 33.97193817 20.1324811 32.19140625 22.078125 C31.57136719 22.58859375 30.95132812 23.0990625 30.3125 23.625 C29.38630859 24.40617187 29.38630859 24.40617187 28.44140625 25.203125 C26.75 26.375 26.75 26.375 24.75 26.375 C23.84670782 25.18146968 23.00218518 23.94318286 22.1875 22.6875 C18.22814394 17.1873108 13.09142202 14.48880734 6.75 12.375 C-3.88951967 11.47609321 -11.19031361 12.94477914 -19.5625 19.5625 C-23.59147879 23.29511256 -25.44983509 27.25874185 -27.25 32.375 C-27.6625 33.303125 -28.075 34.23125 -28.5 35.1875 C-30.9683402 45.67794584 -28.8907014 55.95974788 -24.1875 65.5390625 C-20.66551985 71.09107288 -14.81915838 75.56937602 -8.39453125 77.01953125 C2.9971668 78.30728842 11.07252083 77.95919408 20.125 70.8125 C24.04609911 67.1714794 25.0068518 64.90293286 25.375 59.6875 C25.560625 57.0578125 25.560625 57.0578125 25.75 54.375 C19.48 54.375 13.21 54.375 6.75 54.375 C6.75 50.745 6.75 47.115 6.75 43.375 C16.98 43.375 27.21 43.375 37.75 43.375 C37.75 58.555 37.75 73.735 37.75 89.375 C33.79 89.375 29.83 89.375 25.75 89.375 C25.75 86.405 25.75 83.435 25.75 80.375 C25.14414063 80.84550781 24.53828125 81.31601562 23.9140625 81.80078125 C13.91883859 89.22800148 5.18985828 91.44170282 -7.25 90.375 C-18.07969393 88.76791975 -26.65247526 83.1522865 -33.58203125 74.7578125 C-42.79974036 61.58965663 -44.7102803 50.12603167 -43.25 34.375 C-42.13020016 29.97194703 -40.54551989 26.28269137 -38.25 22.375 C-37.63125 21.3025 -37.0125 20.23 -36.375 19.125 C-35.67375 18.2175 -34.9725 17.31 -34.25 16.375 C-33.53070312 15.42367188 -33.53070312 15.42367188 -32.796875 14.453125 C-24.07639583 3.61365089 -13.52048588 0.01740088 0 0 Z " fill="#F2F2F2" transform="translate(1297.25,389.625)"/>
<path d="M0 0 C33.15690867 0 33.15690867 0 43 9 C50.82547057 17.61792329 50.61292256 27.90588522 50.13916016 38.91210938 C49.60859068 46.87251321 46.81083868 51.94585587 41.62109375 57.89453125 C27.7841437 69.00945834 19.70434533 65 0 65 C0 43.55 0 22.1 0 0 Z " fill="#020202" transform="translate(892,402)"/>
<path d="M0 0 C20.79 0 41.58 0 63 0 C63 3.96 63 7.92 63 12 C46.83 12 30.66 12 14 12 C14 20.58 14 29.16 14 38 C27.86 38 41.72 38 56 38 C56 41.63 56 45.26 56 49 C42.14 49 28.28 49 14 49 C14 58.24 14 67.48 14 77 C30.5 77 47 77 64 77 C64 80.96 64 84.92 64 89 C42.88 89 21.76 89 0 89 C0 59.63 0 30.26 0 0 Z " fill="#EFEFEF" transform="translate(614,390)"/>
<path d="M0 0 C10.37369206 5.37177603 14.8976941 14.35714479 18.48828125 25.12890625 C20.18537856 35.64671922 19.48828125 46.60576135 19.48828125 57.12890625 C-0.31171875 57.12890625 -20.11171875 57.12890625 -40.51171875 57.12890625 C-40.51171875 48.98853769 -39.57485748 41.92616921 -37.91308594 34.06542969 C-37.55643886 32.34467264 -37.23830798 30.61603335 -36.92578125 28.88671875 C-34.80153882 18.48620709 -29.95276535 9.13692421 -21.19921875 2.87890625 C-14.65779984 -1.26981155 -7.48175137 -2.59475981 0 0 Z " fill="#010101" transform="translate(812.51171875,121.87109375)"/>
<path d="M0 0 C-0.72241198 4.11704694 -2.02353711 7.30487372 -4 11 C-8.06166635 10.19134245 -11.08155117 8.28612438 -14.5859375 6.15625 C-19.87653806 3.62224067 -25.73837563 3.76344408 -31.5 3.6875 C-32.23347656 3.65849609 -32.96695312 3.62949219 -33.72265625 3.59960938 C-38.94812211 3.53884814 -41.86285969 4.54199869 -46 8 C-48.14553377 11.21830065 -48.29583868 12.26786507 -48.3125 16 C-48.32925781 16.86625 -48.34601563 17.7325 -48.36328125 18.625 C-47.91845676 21.53309987 -47.22443997 22.13956495 -45 24 C-42.96619014 25.00191473 -42.96619014 25.00191473 -40.68359375 25.75390625 C-39.83603516 26.05103516 -38.98847656 26.34816406 -38.11523438 26.65429688 C-36.78975586 27.10385742 -36.78975586 27.10385742 -35.4375 27.5625 C-34.15262695 28.01786133 -34.15262695 28.01786133 -32.84179688 28.48242188 C-28.51006255 29.97848362 -24.29517408 31.19322523 -19.78125 32 C-15.30811436 32.83027938 -12.02653323 34.20322673 -8.0625 36.4375 C-6.98097656 37.03433594 -5.89945313 37.63117188 -4.78515625 38.24609375 C0.92463697 41.84174193 2.49168417 45.53578931 4 52 C4.81281267 58.30742634 3.9470516 64.33338851 1 70 C-4.73284201 77.30406538 -11.00009295 80.48231057 -20 82 C-36.77573683 83.4505719 -51.41681361 81.44536504 -65 71 C-65.33 70.01 -65.66 69.02 -66 68 C-64.78515625 65.73828125 -64.78515625 65.73828125 -63.0625 63.3125 C-62.49660156 62.50425781 -61.93070313 61.69601562 -61.34765625 60.86328125 C-60.90292969 60.24839844 -60.45820312 59.63351562 -60 59 C-59.10539062 59.55429687 -58.21078125 60.10859375 -57.2890625 60.6796875 C-44.91437173 68.17220961 -32.9905519 71.25908421 -18.375 68.25 C-14.76751625 66.91389491 -14.05805587 66.06837421 -12 63 C-16.7266426 58.51889728 -20.83056298 55.18500894 -27 53 C-27 52.01 -27 51.02 -27 50 C-24.36 49.34 -21.72 48.68 -19 48 C-19 47.34 -19 46.68 -19 46 C-24.41798723 44.27553905 -29.81003545 42.79975126 -35.375 41.625 C-44.7066834 39.5182015 -55.36127356 36.68501243 -60.78515625 28.2109375 C-63.37784854 21.35822668 -63.47467351 12.20568408 -60.4375 5.4375 C-56.43081564 -1.04348769 -50.02720275 -5.32096662 -43 -8 C-27.38526117 -11.53541256 -13.35386377 -8.05539524 0 0 Z " fill="#F4F4F4" transform="translate(1558,398)"/>
<path d="M0 0 C20.46 0 40.92 0 62 0 C62 3.96 62 7.92 62 12 C45.83 12 29.66 12 13 12 C13 20.58 13 29.16 13 38 C26.86 38 40.72 38 55 38 C55 41.63 55 45.26 55 49 C41.14 49 27.28 49 13 49 C13 58.24 13 67.48 13 77 C29.5 77 46 77 63 77 C63 80.96 63 84.92 63 89 C42.21 89 21.42 89 0 89 C0 59.63 0 30.26 0 0 Z " fill="#F2F2F2" transform="translate(996,390)"/>
<path d="M0 0 C-0.72241198 4.11704694 -2.02353711 7.30487372 -4 11 C-6.50430908 10.06307318 -8.80187795 9.12289526 -11.078125 7.7109375 C-19.0720513 2.79381017 -28.92424407 2.50254461 -38.01074219 4.42553711 C-41.4265815 5.3500357 -43.88630319 6.06430998 -46 9 C-47.45207416 13.35622248 -47.56387526 17.61819089 -46.51171875 22.0625 C-44.00667199 25.27310256 -40.42490251 25.91012738 -36.625 27.0625 C-35.40369385 27.45308594 -35.40369385 27.45308594 -34.15771484 27.8515625 C-29.68147279 29.26017633 -25.20523209 30.47066593 -20.625 31.5 C-10.0247051 34.03229267 -1.64704497 38.48082307 4.125 47.8203125 C6.2505185 53.11513091 5.77277036 59.88298665 4.41796875 65.34765625 C1.68972181 71.61390379 -3.83769635 77.3062244 -10.16943359 79.8828125 C-16.28687995 81.91035019 -21.95883282 82.47948237 -28.375 82.375 C-29.75461914 82.35759766 -29.75461914 82.35759766 -31.16210938 82.33984375 C-43.95322025 82.0329293 -53.82705648 78.82291471 -64 71 C-65 68 -65 68 -64.00390625 65.73828125 C-63.52824219 64.93777344 -63.05257813 64.13726562 -62.5625 63.3125 C-61.85287109 62.10013672 -61.85287109 62.10013672 -61.12890625 60.86328125 C-60.75636719 60.24839844 -60.38382813 59.63351562 -60 59 C-57.61766386 60.15349122 -55.3166564 61.38678141 -53.01171875 62.69140625 C-51.91472656 63.30886719 -50.81773438 63.92632812 -49.6875 64.5625 C-48.59824219 65.18253906 -47.50898437 65.80257812 -46.38671875 66.44140625 C-37.92652942 70.33484978 -26.45434878 70.06140812 -17.375 68.375 C-13.11948554 66.64127189 -11.88634172 65.16567129 -10 61 C-9.55738372 56.721376 -9.54059463 53.57603195 -12 50 C-18.84363195 46.03267713 -26.32962547 43.78331561 -34 42.0625 C-42.97161621 40.01206265 -53.61627458 36.94804178 -59.3125 29.25 C-62.64403833 22.83370395 -63.32357883 16.27379893 -61.1640625 9.30078125 C-57.81466602 1.96133192 -52.70183826 -3.51035578 -45.3125 -6.875 C-29.53209722 -12.23438208 -13.55124825 -8.98611143 0 0 Z " fill="#F2F2F2" transform="translate(1157,398)"/>
<path d="M0 0 C4.98335479 -0.16149761 9.95751036 -0.30052863 14.94140625 -0.38452148 C16.63312663 -0.41955043 18.32463774 -0.46719144 20.015625 -0.52807617 C35.88484542 -1.08480885 35.88484542 -1.08480885 41.09375 3.46484375 C42.80273438 5.38647461 42.80273438 5.38647461 44 7 C44.495 7.495 44.495 7.495 45 8 C45.82659128 13.95354984 45.80106903 18.69674201 42.125 23.625 C40.44307934 25.61567904 39.33213378 26.83393311 37 28 C34.22839374 28.08683445 31.48225235 28.1155579 28.7109375 28.09765625 C27.48330185 28.09553383 27.48330185 28.09553383 26.23086548 28.09336853 C23.61220675 28.0877629 20.99363296 28.07520948 18.375 28.0625 C16.60156373 28.05748572 14.82812613 28.05292269 13.0546875 28.04882812 C8.70306581 28.03864174 4.35162818 28.0190675 0 28 C0 18.76 0 9.52 0 0 Z " fill="#040404" transform="translate(730,439)"/>
<path d="M0 0 C4.29 0 8.58 0 13 0 C13 29.37 13 58.74 13 89 C8.71 89 4.42 89 0 89 C0 59.63 0 30.26 0 0 Z " fill="#F4F4F4" transform="translate(1201,390)"/>
<path d="M0 0 C4.73379735 -0.11514642 9.46269229 -0.21455657 14.19677734 -0.2746582 C15.80501818 -0.29972128 17.41314602 -0.33378171 19.02099609 -0.37719727 C21.33980239 -0.43821848 23.65709665 -0.46628963 25.9765625 -0.48828125 C26.68930328 -0.51408768 27.40204407 -0.5398941 28.13638306 -0.56648254 C32.03487451 -0.56864687 34.44283578 -0.01498519 37.41552734 2.41333008 C40.8781211 5.87886767 41.82559365 7.45941058 42.375 12.3125 C41.84799593 17.49470665 40.05537151 20.90299841 36.34863281 24.68481445 C33.01677762 26.55058409 29.88512862 26.37248527 26.171875 26.29296875 C25.04836639 26.28660149 25.04836639 26.28660149 23.90216064 26.28010559 C21.51773625 26.26335746 19.13416747 26.22571397 16.75 26.1875 C15.13022057 26.17244809 13.51042785 26.15876057 11.890625 26.14648438 C7.9264912 26.11602228 3.96419946 26.05729839 0 26 C0 17.42 0 8.84 0 0 Z " fill="#010101" transform="translate(730,402)"/>
<path d="M0 0 C4.53054065 1.95636983 7.41823522 3.73015824 10 8 C10.4375 11.125 10.4375 11.125 10 14 C8.47265625 15.6796875 8.47265625 15.6796875 7 17 C6.50371094 16.52949219 6.00742188 16.05898438 5.49609375 15.57421875 C1.18594947 11.62393472 -2.48317233 8.95387647 -8 7 C-8 6.01 -8 5.02 -8 4 C-5.36 3.34 -2.72 2.68 0 2 C0 1.34 0 0.68 0 0 Z " fill="#7B7B7B" transform="translate(1539,444)"/>
<path d="M0 0 C0.33 0.99 0.66 1.98 1 3 C3.97 3.495 3.97 3.495 7 4 C7 3.01 7 2.02 7 1 C11.99005032 1.46781722 16.15195521 3.88919744 20 7 C20.33 7.99 20.66 8.98 21 10 C17.67424363 11.12865035 15.87796829 10.8691177 12.625 9.625 C9.08853571 8.34485838 5.74690769 7.48037278 2 7 C2 6.34 2 5.68 2 5 C1.34 4.67 0.68 4.34 0 4 C0 2.68 0 1.36 0 0 Z " fill="#DCDCDC" transform="translate(133,197)"/>
<path d="M0 0 C3.3 0 6.6 0 10 0 C9.67 0.99 9.34 1.98 9 3 C11.97 3.33 14.94 3.66 18 4 C18 4.33 18 4.66 18 5 C17.01257813 5.04898437 16.02515625 5.09796875 15.0078125 5.1484375 C13.72648437 5.22320312 12.44515625 5.29796875 11.125 5.375 C9.21074219 5.47941406 9.21074219 5.47941406 7.2578125 5.5859375 C3.91938301 5.67241106 3.91938301 5.67241106 2 8 C-0.9093558 8.14517744 -3.719946 8.18630796 -6.625 8.125 C-7.42679687 8.11597656 -8.22859375 8.10695313 -9.0546875 8.09765625 C-11.03658523 8.07406223 -13.01832981 8.03819065 -15 8 C-15 7.67 -15 7.34 -15 7 C-8.07 6.01 -8.07 6.01 -1 5 C-0.67 3.35 -0.34 1.7 0 0 Z " fill="#363636" transform="translate(126,341)"/>
<path d="M0 0 C2.25621163 1.08632412 4.37353544 2.23345965 6.5 3.5625 C8.7421556 4.85173947 10.48078813 5.53347928 13 6 C13 6.99 13 7.98 13 9 C9.7 10.32 6.4 11.64 3 13 C2.51171875 10.49348958 2.0234375 7.98697917 1.53515625 5.48046875 C1.02258847 2.88602829 1.02258847 2.88602829 0 0 Z " fill="#777777" transform="translate(1559,442)"/>
<path d="M0 0 C4.455 1.98 4.455 1.98 9 4 C9.33 3.01 9.66 2.02 10 1 C10.99 3.31 11.98 5.62 13 8 C11.125 9.0625 11.125 9.0625 9 10 C8.34 9.67 7.68 9.34 7 9 C6.67 9.66 6.34 10.32 6 11 C4.98805294 9.92781799 3.99081943 8.84173622 3 7.75 C2.443125 7.14671875 1.88625 6.5434375 1.3125 5.921875 C0 4 0 4 0 0 Z " fill="#0F0F0F" transform="translate(290,183)"/>
<path d="M0 0 C0 0.99 0 1.98 0 3 C-5.14089921 3.90249856 -9.69726374 3.97986395 -14.9375 3.5625 C-15.96327148 3.48418945 -15.96327148 3.48418945 -17.00976562 3.40429688 C-18.67371169 3.27630102 -20.3369473 3.13912281 -22 3 C-22 2.67 -22 2.34 -22 2 C-21.236875 1.87625 -20.47375 1.7525 -19.6875 1.625 C-6.82795699 -1.3655914 -6.82795699 -1.3655914 0 0 Z " fill="#1B1B1B" transform="translate(231,210)"/>
<path d="M0 0 C1.95825873 -0.02694851 3.91662226 -0.04637218 5.875 -0.0625 C6.96554688 -0.07410156 8.05609375 -0.08570313 9.1796875 -0.09765625 C12 0 12 0 14 1 C14 1.66 14 2.32 14 3 C12.68 3.33 11.36 3.66 10 4 C10.33 4.66 10.66 5.32 11 6 C6.45194365 6.17835515 3.1205746 5.99785435 -1 4 C-0.67 2.68 -0.34 1.36 0 0 Z " fill="#BDBDBD" transform="translate(149,244)"/>
<path d="M0 0 C0.33 0.99 0.66 1.98 1 3 C2.0725 2.484375 3.145 1.96875 4.25 1.4375 C6.71477612 0.36759718 7.72132303 -0.03572782 10.4375 0.3125 C11.2109375 0.6528125 11.2109375 0.6528125 12 1 C7.07507508 5.92492492 7.07507508 5.92492492 2.30078125 6.09765625 C1.31464844 6.08605469 0.32851562 6.07445312 -0.6875 6.0625 C-1.68136719 6.05347656 -2.67523438 6.04445313 -3.69921875 6.03515625 C-4.83810547 6.01775391 -4.83810547 6.01775391 -6 6 C-6 5.34 -6 4.68 -6 4 C-4.36368108 2.95107762 -2.69514137 1.95093297 -1 1 C-0.67 0.67 -0.34 0.34 0 0 Z " fill="#232323" transform="translate(214,318)"/>
<path d="M0 0 C7.875 0.875 7.875 0.875 9 2 C10.68183948 2.23287008 12.3712416 2.41264166 14.0625 2.5625 C15.44115234 2.68818359 15.44115234 2.68818359 16.84765625 2.81640625 C17.91306641 2.90728516 17.91306641 2.90728516 19 3 C19 3.33 19 3.66 19 4 C18.37351563 4.03738281 17.74703125 4.07476562 17.1015625 4.11328125 C15.87566406 4.21189453 15.87566406 4.21189453 14.625 4.3125 C13.81289062 4.37050781 13.00078125 4.42851562 12.1640625 4.48828125 C9.62078662 4.82990528 9.62078662 4.82990528 8 8 C6.68 7.67 5.36 7.34 4 7 C4 6.01 4 5.02 4 4 C2.68 3.67 1.36 3.34 0 3 C0 2.01 0 1.02 0 0 Z " fill="#303030" transform="translate(110,285)"/>
<path d="M0 0 C3.63 0.33 7.26 0.66 11 1 C11.33 1.99 11.66 2.98 12 4 C12.33 3.67 12.66 3.34 13 3 C14.66617115 2.95936168 16.33388095 2.957279 18 3 C18.33 4.32 18.66 5.64 19 7 C18.05125 6.979375 17.1025 6.95875 16.125 6.9375 C13.09333717 6.77448174 13.09333717 6.77448174 11 8 C10.34 7.01 9.68 6.02 9 5 C8.01 4.67 7.02 4.34 6 4 C6 3.34 6 2.68 6 2 C4.35 2 2.7 2 1 2 C0.67 1.34 0.34 0.68 0 0 Z " fill="#CDCDCD" transform="translate(123,296)"/>
<path d="M0 0 C0.99 0.33 1.98 0.66 3 1 C5.22818441 1.06937062 7.45834524 1.08457084 9.6875 1.0625 C10.86699219 1.05347656 12.04648438 1.04445312 13.26171875 1.03515625 C14.16535156 1.02355469 15.06898438 1.01195312 16 1 C16.66 2.32 17.32 3.64 18 5 C15.72923158 5.02699725 13.45837179 5.04639453 11.1875 5.0625 C9.29064453 5.07990234 9.29064453 5.07990234 7.35546875 5.09765625 C4 5 4 5 1 4 C0.3125 1.9375 0.3125 1.9375 0 0 Z " fill="#D7D7D7" transform="translate(142,222)"/>
<path d="M0 0 C2.64 0.66 5.28 1.32 8 2 C7.67 3.32 7.34 4.64 7 6 C4.87527424 6.05386629 2.75016348 6.09273071 0.625 6.125 C-1.15003906 6.15980469 -1.15003906 6.15980469 -2.9609375 6.1953125 C-6 6 -6 6 -8 4 C-5.03 4 -2.06 4 1 4 C0.67 2.68 0.34 1.36 0 0 Z " fill="#393939" transform="translate(208,259)"/>
<path d="M0 0 C0.66 0 1.32 0 2 0 C2 0.66 2 1.32 2 2 C4.31 2 6.62 2 9 2 C9 2.99 9 3.98 9 5 C2.25 6.125 2.25 6.125 0 5 C-1.32860925 4.64830932 -2.66158328 4.31229724 -4 4 C-3.01 4 -2.02 4 -1 4 C-0.67 2.68 -0.34 1.36 0 0 Z " fill="#080808" transform="translate(59,325)"/>
<path d="M0 0 C0 0.66 0 1.32 0 2 C-4.95350675 3.05476879 -9.37839349 2.95554228 -14.375 2.5625 C-15.11105469 2.51029297 -15.84710938 2.45808594 -16.60546875 2.40429688 C-18.40410629 2.27582277 -20.20212909 2.13879051 -22 2 C-22 1.67 -22 1.34 -22 1 C-19.45947886 0.63491323 -16.9182372 0.28268543 -14.375 -0.0625 C-13.30572266 -0.2181543 -13.30572266 -0.2181543 -12.21484375 -0.37695312 C-7.89893076 -0.95108834 -4.30515309 -0.97103611 0 0 Z " fill="#2A2A2A" transform="translate(75,238)"/>
<path d="M0 0 C0 1.32 0 2.64 0 4 C-4.29 4 -8.58 4 -13 4 C-13.33 3.01 -13.66 2.02 -14 1 C-9.32798795 -0.20568053 -4.78503708 -0.09382426 0 0 Z " fill="#3C3C3C" transform="translate(62,278)"/>
<path d="M0 0 C6.1105424 -0.11269443 11.95170514 0.10395632 18 1 C18 1.33 18 1.66 18 2 C15.02148438 2.29296875 15.02148438 2.29296875 12.04296875 2.5859375 C9.70011858 2.92665391 9.70011858 2.92665391 7 5 C7 4.34 7 3.68 7 3 C4.36 3 1.72 3 -1 3 C-0.67 2.01 -0.34 1.02 0 0 Z " fill="#C1C1C1" transform="translate(184,264)"/>
<path d="M0 0 C0.66 0.33 1.32 0.66 2 1 C2 12 2 12 1 14 C0.34 14 -0.32 14 -1 14 C-1 11.36 -1 8.72 -1 6 C-1.66 5.67 -2.32 5.34 -3 5 C-1.125 1.125 -1.125 1.125 0 0 Z " fill="#5C5C5C" transform="translate(263,345)"/>
<path d="M0 0 C0.66 0.33 1.32 0.66 2 1 C-2.95 5.95 -7.9 10.9 -13 16 C-13.66 15.67 -14.32 15.34 -15 15 C-12.06334264 10.96209613 -8.68524643 7.85773305 -4.90234375 4.6484375 C-3.18778129 3.16271808 -1.58115759 1.62548911 0 0 Z " fill="#DCDCDC" transform="translate(745,118)"/>
<path d="M0 0 C0.763125 0.20625 1.52625 0.4125 2.3125 0.625 C1.3225 2.11 1.3225 2.11 0.3125 3.625 C-0.6775 3.625 -1.6675 3.625 -2.6875 3.625 C-2.6875 4.285 -2.6875 4.945 -2.6875 5.625 C-4.3375 5.955 -5.9875 6.285 -7.6875 6.625 C-6.22846393 2.36012534 -5.12714281 -0.71541528 0 0 Z " fill="#0D0D0D" transform="translate(210.6875,318.375)"/>
<path d="M0 0 C0.99 0 1.98 0 3 0 C3.66 2.64 4.32 5.28 5 8 C3.02 7.34 1.04 6.68 -1 6 C-0.67 4.02 -0.34 2.04 0 0 Z " fill="#757575" transform="translate(1550,429)"/>
<path d="M0 0 C5.28 0 10.56 0 16 0 C16 0.33 16 0.66 16 1 C9.565 1.495 9.565 1.495 3 2 C2.67 2.99 2.34 3.98 2 5 C1.67 5.99 1.34 6.98 1 8 C-0.0625 6.25 -0.0625 6.25 -1 4 C-0.67 2.68 -0.34 1.36 0 0 Z " fill="#BCBCBC" transform="translate(15,335)"/>
<path d="M0 0 C4.62 0 9.24 0 14 0 C14.33 0.99 14.66 1.98 15 3 C10.05 2.67 5.1 2.34 0 2 C0 1.34 0 0.68 0 0 Z " fill="#BCBCBC" transform="translate(139,263)"/>
<path d="M0 0 C2.0625 0.4375 2.0625 0.4375 4 1 C3.67 1.66 3.34 2.32 3 3 C2.01 3 1.02 3 0 3 C0 3.99 0 4.98 0 6 C-2.97 5.505 -2.97 5.505 -6 5 C-5.67 4.01 -5.34 3.02 -5 2 C-3 1.375 -3 1.375 -1 1 C-0.67 0.67 -0.34 0.34 0 0 Z " fill="#373737" transform="translate(140,195)"/>
<path d="M0 0 C1.67542976 0.28604898 3.34385343 0.61781233 5 1 C5.33 1.99 5.66 2.98 6 4 C3.69 4.33 1.38 4.66 -1 5 C-1 1 -1 1 0 0 Z " fill="#7F7F7F" transform="translate(50,293)"/>
<path d="M0 0 C0.66 0.66 1.32 1.32 2 2 C2.99 1.67 3.98 1.34 5 1 C5 1.66 5 2.32 5 3 C5.99 2.67 6.98 2.34 8 2 C8 2.99 8 3.98 8 5 C4.37 4.34 0.74 3.68 -3 3 C-2.01 2.67 -1.02 2.34 0 2 C0 1.34 0 0.68 0 0 Z " fill="#959595" transform="translate(216,292)"/>
<path d="M0 0 C2.97 0 5.94 0 9 0 C8.01 0.495 8.01 0.495 7 1 C6.67 1.99 6.34 2.98 6 4 C4.02 3.34 2.04 2.68 0 2 C0 1.34 0 0.68 0 0 Z " fill="#383838" transform="translate(130,314)"/>
<path d="M0 0 C-1.3125 1.5 -1.3125 1.5 -3 3 C-3.99 3 -4.98 3 -6 3 C-6.33 3.66 -6.66 4.32 -7 5 C-7 4.01 -7 3.02 -7 2 C-8.32 1.67 -9.64 1.34 -11 1 C-7.27569643 0.30710631 -3.78916254 -0.11144596 0 0 Z " fill="#D0D0D0" transform="translate(383,369)"/>
<path d="M0 0 C3.3 0 6.6 0 10 0 C9.67 0.99 9.34 1.98 9 3 C5.625 3.1875 5.625 3.1875 2 3 C1.34 2.01 0.68 1.02 0 0 Z " fill="#626262" transform="translate(126,341)"/>
<path d="M0 0 C0.66 0 1.32 0 2 0 C2 0.66 2 1.32 2 2 C3.32 2.33 4.64 2.66 6 3 C4.68 3 3.36 3 2 3 C1.67 3.66 1.34 4.32 1 5 C-0.65 5 -2.3 5 -4 5 C-3.01 4.67 -2.02 4.34 -1 4 C-0.26676204 1.98491642 -0.26676204 1.98491642 0 0 Z " fill="#525252" transform="translate(59,325)"/>
<path d="M0 0 C2.3125 -0.25 2.3125 -0.25 5 0 C6.8125 2 6.8125 2 8 4 C5.36 3.67 2.72 3.34 0 3 C0 2.01 0 1.02 0 0 Z " fill="#171717" transform="translate(201,276)"/>
<path d="M0 0 C1.81325551 0.11351517 3.62563357 0.24112961 5.4375 0.375 C6.95150391 0.47941406 6.95150391 0.47941406 8.49609375 0.5859375 C9.73552734 0.79089844 9.73552734 0.79089844 11 1 C11.33 1.66 11.66 2.32 12 3 C7.45194365 3.17835515 4.1205746 2.99785435 0 1 C0 0.67 0 0.34 0 0 Z " fill="#C5C5C5" transform="translate(148,247)"/>
<path d="M0 0 C1.32 0 2.64 0 4 0 C3.67 1.65 3.34 3.3 3 5 C2.34 4.34 1.68 3.68 1 3 C-0.32 3.99 -1.64 4.98 -3 6 C-1.125 1.125 -1.125 1.125 0 0 Z " fill="#B8B8B8" transform="translate(310,103)"/>
<path d="M0 0 C-0.66 0 -1.32 0 -2 0 C-2 0.66 -2 1.32 -2 2 C-4.64 2 -7.28 2 -10 2 C-10.33 2.66 -10.66 3.32 -11 4 C-11 3.01 -11 2.02 -11 1 C-3.57142857 -1.42857143 -3.57142857 -1.42857143 0 0 Z " fill="#ACACAC" transform="translate(336,235)"/>
<path d="M0 0 C1.9375 0.3125 1.9375 0.3125 4 1 C4.33 1.99 4.66 2.98 5 4 C2.03 3.505 2.03 3.505 -1 3 C-0.67 2.01 -0.34 1.02 0 0 Z " fill="#C2C2C2" transform="translate(155,223)"/>
<path d="M0 0 C2.9375 0.375 2.9375 0.375 6 1 C6.33 1.66 6.66 2.32 7 3 C4.03 3 1.06 3 -2 3 C-1.34 2.01 -0.68 1.02 0 0 Z " fill="#EEEEEE" transform="translate(143,265)"/>
</svg>
